<?xml version="1.0" encoding="utf-8" standalone="no"?>
<!DOCTYPE svg PUBLIC "-//W3C//DTD SVG 1.1//EN"
  "http://www.w3.org/Graphics/SVG/1.1/DTD/svg11.dtd">
<svg xmlns:xlink="http://www.w3.org/1999/xlink" width="720pt" height="360pt" viewBox="0 0 720 360" xmlns="http://www.w3.org/2000/svg" version="1.1">
 <metadata>
  <rdf:RDF xmlns:dc="http://purl.org/dc/elements/1.1/" xmlns:cc="http://creativecommons.org/ns#" xmlns:rdf="http://www.w3.org/1999/02/22-rdf-syntax-ns#">
   <cc:Work>
    <dc:type rdf:resource="http://purl.org/dc/dcmitype/StillImage"/>
    <dc:date>2025-11-19T18:14:56.395945</dc:date>
    <dc:format>image/svg+xml</dc:format>
    <dc:creator>
     <cc:Agent>
      <dc:title>Matplotlib v3.10.6, https://matplotlib.org/</dc:title>
     </cc:Agent>
    </dc:creator>
   </cc:Work>
  </rdf:RDF>
 </metadata>
 <defs>
  <style type="text/css">*{stroke-linejoin: round; stroke-linecap: butt}</style>
 </defs>
 <g id="figure_1">
  <g id="patch_1">
   <path d="M 0 360 
L 720 360 
L 720 0 
L 0 0 
z
" style="fill: #ffffff"/>
  </g>
  <g id="axes_1">
   <g id="patch_2">
    <path d="M 56.09 318.04 
L 709.2 318.04 
L 709.2 34.56 
L 56.09 34.56 
z
" style="fill: #ffffff"/>
   </g>
   <g id="matplotlib.axis_1">
    <g id="xtick_1">
     <g id="line2d_1">
      <defs>
       <path id="m229080ccfe" d="M 0 0 
L 0 3.5 
" style="stroke: #000000; stroke-width: 0.8"/>
      </defs>
      <g>
       <use xlink:href="#m229080ccfe" x="85.776818" y="318.04" style="stroke: #000000; stroke-width: 0.8"/>
      </g>
     </g>
     <g id="text_1">
      <!-- 0.0 -->
      <g transform="translate(77.825256 332.638438) scale(0.1 -0.1)">
       <defs>
        <path id="DejaVuSans-30" d="M 2034 4250 
Q 1547 4250 1301 3770 
Q 1056 3291 1056 2328 
Q 1056 1369 1301 889 
Q 1547 409 2034 409 
Q 2525 409 2770 889 
Q 3016 1369 3016 2328 
Q 3016 3291 2770 3770 
Q 2525 4250 2034 4250 
z
M 2034 4750 
Q 2819 4750 3233 4129 
Q 3647 3509 3647 2328 
Q 3647 1150 3233 529 
Q 2819 -91 2034 -91 
Q 1250 -91 836 529 
Q 422 1150 422 2328 
Q 422 3509 836 4129 
Q 1250 4750 2034 4750 
z
" transform="scale(0.015625)"/>
        <path id="DejaVuSans-2e" d="M 684 794 
L 1344 794 
L 1344 0 
L 684 0 
L 684 794 
z
" transform="scale(0.015625)"/>
       </defs>
       <use xlink:href="#DejaVuSans-30"/>
       <use xlink:href="#DejaVuSans-2e" transform="translate(63.623047 0)"/>
       <use xlink:href="#DejaVuSans-30" transform="translate(95.410156 0)"/>
      </g>
     </g>
    </g>
    <g id="xtick_2">
     <g id="line2d_2">
      <g>
       <use xlink:href="#m229080ccfe" x="186.392347" y="318.04" style="stroke: #000000; stroke-width: 0.8"/>
      </g>
     </g>
     <g id="text_2">
      <!-- 0.5 -->
      <g transform="translate(178.440784 332.638438) scale(0.1 -0.1)">
       <defs>
        <path id="DejaVuSans-35" d="M 691 4666 
L 3169 4666 
L 3169 4134 
L 1269 4134 
L 1269 2991 
Q 1406 3038 1543 3061 
Q 1681 3084 1819 3084 
Q 2600 3084 3056 2656 
Q 3513 2228 3513 1497 
Q 3513 744 3044 326 
Q 2575 -91 1722 -91 
Q 1428 -91 1123 -41 
Q 819 9 494 109 
L 494 744 
Q 775 591 1075 516 
Q 1375 441 1709 441 
Q 2250 441 2565 725 
Q 2881 1009 2881 1497 
Q 2881 1984 2565 2268 
Q 2250 2553 1709 2553 
Q 1456 2553 1204 2497 
Q 953 2441 691 2322 
L 691 4666 
z
" transform="scale(0.015625)"/>
       </defs>
       <use xlink:href="#DejaVuSans-30"/>
       <use xlink:href="#DejaVuSans-2e" transform="translate(63.623047 0)"/>
       <use xlink:href="#DejaVuSans-35" transform="translate(95.410156 0)"/>
      </g>
     </g>
    </g>
    <g id="xtick_3">
     <g id="line2d_3">
      <g>
       <use xlink:href="#m229080ccfe" x="287.007876" y="318.04" style="stroke: #000000; stroke-width: 0.8"/>
      </g>
     </g>
     <g id="text_3">
      <!-- 1.0 -->
      <g transform="translate(279.056313 332.638438) scale(0.1 -0.1)">
       <defs>
        <path id="DejaVuSans-31" d="M 794 531 
L 1825 531 
L 1825 4091 
L 703 3866 
L 703 4441 
L 1819 4666 
L 2450 4666 
L 2450 531 
L 3481 531 
L 3481 0 
L 794 0 
L 794 531 
z
" transform="scale(0.015625)"/>
       </defs>
       <use xlink:href="#DejaVuSans-31"/>
       <use xlink:href="#DejaVuSans-2e" transform="translate(63.623047 0)"/>
       <use xlink:href="#DejaVuSans-30" transform="translate(95.410156 0)"/>
      </g>
     </g>
    </g>
    <g id="xtick_4">
     <g id="line2d_4">
      <g>
       <use xlink:href="#m229080ccfe" x="387.623405" y="318.04" style="stroke: #000000; stroke-width: 0.8"/>
      </g>
     </g>
     <g id="text_4">
      <!-- 1.5 -->
      <g transform="translate(379.671842 332.638438) scale(0.1 -0.1)">
       <use xlink:href="#DejaVuSans-31"/>
       <use xlink:href="#DejaVuSans-2e" transform="translate(63.623047 0)"/>
       <use xlink:href="#DejaVuSans-35" transform="translate(95.410156 0)"/>
      </g>
     </g>
    </g>
    <g id="xtick_5">
     <g id="line2d_5">
      <g>
       <use xlink:href="#m229080ccfe" x="488.238933" y="318.04" style="stroke: #000000; stroke-width: 0.8"/>
      </g>
     </g>
     <g id="text_5">
      <!-- 2.0 -->
      <g transform="translate(480.287371 332.638438) scale(0.1 -0.1)">
       <defs>
        <path id="DejaVuSans-32" d="M 1228 531 
L 3431 531 
L 3431 0 
L 469 0 
L 469 531 
Q 828 903 1448 1529 
Q 2069 2156 2228 2338 
Q 2531 2678 2651 2914 
Q 2772 3150 2772 3378 
Q 2772 3750 2511 3984 
Q 2250 4219 1831 4219 
Q 1534 4219 1204 4116 
Q 875 4013 500 3803 
L 500 4441 
Q 881 4594 1212 4672 
Q 1544 4750 1819 4750 
Q 2544 4750 2975 4387 
Q 3406 4025 3406 3419 
Q 3406 3131 3298 2873 
Q 3191 2616 2906 2266 
Q 2828 2175 2409 1742 
Q 1991 1309 1228 531 
z
" transform="scale(0.015625)"/>
       </defs>
       <use xlink:href="#DejaVuSans-32"/>
       <use xlink:href="#DejaVuSans-2e" transform="translate(63.623047 0)"/>
       <use xlink:href="#DejaVuSans-30" transform="translate(95.410156 0)"/>
      </g>
     </g>
    </g>
    <g id="xtick_6">
     <g id="line2d_6">
      <g>
       <use xlink:href="#m229080ccfe" x="588.854462" y="318.04" style="stroke: #000000; stroke-width: 0.8"/>
      </g>
     </g>
     <g id="text_6">
      <!-- 2.5 -->
      <g transform="translate(580.9029 332.638438) scale(0.1 -0.1)">
       <use xlink:href="#DejaVuSans-32"/>
       <use xlink:href="#DejaVuSans-2e" transform="translate(63.623047 0)"/>
       <use xlink:href="#DejaVuSans-35" transform="translate(95.410156 0)"/>
      </g>
     </g>
    </g>
    <g id="xtick_7">
     <g id="line2d_7">
      <g>
       <use xlink:href="#m229080ccfe" x="689.469991" y="318.04" style="stroke: #000000; stroke-width: 0.8"/>
      </g>
     </g>
     <g id="text_7">
      <!-- 3.0 -->
      <g transform="translate(681.518428 332.638438) scale(0.1 -0.1)">
       <defs>
        <path id="DejaVuSans-33" d="M 2597 2516 
Q 3050 2419 3304 2112 
Q 3559 1806 3559 1356 
Q 3559 666 3084 287 
Q 2609 -91 1734 -91 
Q 1441 -91 1130 -33 
Q 819 25 488 141 
L 488 750 
Q 750 597 1062 519 
Q 1375 441 1716 441 
Q 2309 441 2620 675 
Q 2931 909 2931 1356 
Q 2931 1769 2642 2001 
Q 2353 2234 1838 2234 
L 1294 2234 
L 1294 2753 
L 1863 2753 
Q 2328 2753 2575 2939 
Q 2822 3125 2822 3475 
Q 2822 3834 2567 4026 
Q 2313 4219 1838 4219 
Q 1578 4219 1281 4162 
Q 984 4106 628 3988 
L 628 4550 
Q 988 4650 1302 4700 
Q 1616 4750 1894 4750 
Q 2613 4750 3031 4423 
Q 3450 4097 3450 3541 
Q 3450 3153 3228 2886 
Q 3006 2619 2597 2516 
z
" transform="scale(0.015625)"/>
       </defs>
       <use xlink:href="#DejaVuSans-33"/>
       <use xlink:href="#DejaVuSans-2e" transform="translate(63.623047 0)"/>
       <use xlink:href="#DejaVuSans-30" transform="translate(95.410156 0)"/>
      </g>
     </g>
    </g>
    <g id="text_8">
     <!-- time -->
     <g transform="translate(371.348906 346.316563) scale(0.1 -0.1)">
      <defs>
       <path id="DejaVuSans-74" d="M 1172 4494 
L 1172 3500 
L 2356 3500 
L 2356 3053 
L 1172 3053 
L 1172 1153 
Q 1172 725 1289 603 
Q 1406 481 1766 481 
L 2356 481 
L 2356 0 
L 1766 0 
Q 1100 0 847 248 
Q 594 497 594 1153 
L 594 3053 
L 172 3053 
L 172 3500 
L 594 3500 
L 594 4494 
L 1172 4494 
z
" transform="scale(0.015625)"/>
       <path id="DejaVuSans-69" d="M 603 3500 
L 1178 3500 
L 1178 0 
L 603 0 
L 603 3500 
z
M 603 4863 
L 1178 4863 
L 1178 4134 
L 603 4134 
L 603 4863 
z
" transform="scale(0.015625)"/>
       <path id="DejaVuSans-6d" d="M 3328 2828 
Q 3544 3216 3844 3400 
Q 4144 3584 4550 3584 
Q 5097 3584 5394 3201 
Q 5691 2819 5691 2113 
L 5691 0 
L 5113 0 
L 5113 2094 
Q 5113 2597 4934 2840 
Q 4756 3084 4391 3084 
Q 3944 3084 3684 2787 
Q 3425 2491 3425 1978 
L 3425 0 
L 2847 0 
L 2847 2094 
Q 2847 2600 2669 2842 
Q 2491 3084 2119 3084 
Q 1678 3084 1418 2786 
Q 1159 2488 1159 1978 
L 1159 0 
L 581 0 
L 581 3500 
L 1159 3500 
L 1159 2956 
Q 1356 3278 1631 3431 
Q 1906 3584 2284 3584 
Q 2666 3584 2933 3390 
Q 3200 3197 3328 2828 
z
" transform="scale(0.015625)"/>
       <path id="DejaVuSans-65" d="M 3597 1894 
L 3597 1613 
L 953 1613 
Q 991 1019 1311 708 
Q 1631 397 2203 397 
Q 2534 397 2845 478 
Q 3156 559 3463 722 
L 3463 178 
Q 3153 47 2828 -22 
Q 2503 -91 2169 -91 
Q 1331 -91 842 396 
Q 353 884 353 1716 
Q 353 2575 817 3079 
Q 1281 3584 2069 3584 
Q 2775 3584 3186 3129 
Q 3597 2675 3597 1894 
z
M 3022 2063 
Q 3016 2534 2758 2815 
Q 2500 3097 2075 3097 
Q 1594 3097 1305 2825 
Q 1016 2553 972 2059 
L 3022 2063 
z
" transform="scale(0.015625)"/>
      </defs>
      <use xlink:href="#DejaVuSans-74"/>
      <use xlink:href="#DejaVuSans-69" transform="translate(39.208984 0)"/>
      <use xlink:href="#DejaVuSans-6d" transform="translate(66.992188 0)"/>
      <use xlink:href="#DejaVuSans-65" transform="translate(164.404297 0)"/>
     </g>
    </g>
   </g>
   <g id="matplotlib.axis_2">
    <g id="ytick_1">
     <g id="line2d_8">
      <defs>
       <path id="m2ea20f64d9" d="M 0 0 
L -3.5 0 
" style="stroke: #000000; stroke-width: 0.8"/>
      </defs>
      <g>
       <use xlink:href="#m2ea20f64d9" x="56.09" y="311.817309" style="stroke: #000000; stroke-width: 0.8"/>
      </g>
     </g>
     <g id="text_9">
      <!-- −2.5 -->
      <g transform="translate(24.807188 315.616527) scale(0.1 -0.1)">
       <defs>
        <path id="DejaVuSans-2212" d="M 678 2272 
L 4684 2272 
L 4684 1741 
L 678 1741 
L 678 2272 
z
" transform="scale(0.015625)"/>
       </defs>
       <use xlink:href="#DejaVuSans-2212"/>
       <use xlink:href="#DejaVuSans-32" transform="translate(83.789062 0)"/>
       <use xlink:href="#DejaVuSans-2e" transform="translate(147.412109 0)"/>
       <use xlink:href="#DejaVuSans-35" transform="translate(179.199219 0)"/>
      </g>
     </g>
    </g>
    <g id="ytick_2">
     <g id="line2d_9">
      <g>
       <use xlink:href="#m2ea20f64d9" x="56.09" y="280.283625" style="stroke: #000000; stroke-width: 0.8"/>
      </g>
     </g>
     <g id="text_10">
      <!-- −2.0 -->
      <g transform="translate(24.807188 284.082844) scale(0.1 -0.1)">
       <use xlink:href="#DejaVuSans-2212"/>
       <use xlink:href="#DejaVuSans-32" transform="translate(83.789062 0)"/>
       <use xlink:href="#DejaVuSans-2e" transform="translate(147.412109 0)"/>
       <use xlink:href="#DejaVuSans-30" transform="translate(179.199219 0)"/>
      </g>
     </g>
    </g>
    <g id="ytick_3">
     <g id="line2d_10">
      <g>
       <use xlink:href="#m2ea20f64d9" x="56.09" y="248.749942" style="stroke: #000000; stroke-width: 0.8"/>
      </g>
     </g>
     <g id="text_11">
      <!-- −1.5 -->
      <g transform="translate(24.807188 252.549161) scale(0.1 -0.1)">
       <use xlink:href="#DejaVuSans-2212"/>
       <use xlink:href="#DejaVuSans-31" transform="translate(83.789062 0)"/>
       <use xlink:href="#DejaVuSans-2e" transform="translate(147.412109 0)"/>
       <use xlink:href="#DejaVuSans-35" transform="translate(179.199219 0)"/>
      </g>
     </g>
    </g>
    <g id="ytick_4">
     <g id="line2d_11">
      <g>
       <use xlink:href="#m2ea20f64d9" x="56.09" y="217.216259" style="stroke: #000000; stroke-width: 0.8"/>
      </g>
     </g>
     <g id="text_12">
      <!-- −1.0 -->
      <g transform="translate(24.807188 221.015478) scale(0.1 -0.1)">
       <use xlink:href="#DejaVuSans-2212"/>
       <use xlink:href="#DejaVuSans-31" transform="translate(83.789062 0)"/>
       <use xlink:href="#DejaVuSans-2e" transform="translate(147.412109 0)"/>
       <use xlink:href="#DejaVuSans-30" transform="translate(179.199219 0)"/>
      </g>
     </g>
    </g>
    <g id="ytick_5">
     <g id="line2d_12">
      <g>
       <use xlink:href="#m2ea20f64d9" x="56.09" y="185.682576" style="stroke: #000000; stroke-width: 0.8"/>
      </g>
     </g>
     <g id="text_13">
      <!-- −0.5 -->
      <g transform="translate(24.807188 189.481794) scale(0.1 -0.1)">
       <use xlink:href="#DejaVuSans-2212"/>
       <use xlink:href="#DejaVuSans-30" transform="translate(83.789062 0)"/>
       <use xlink:href="#DejaVuSans-2e" transform="translate(147.412109 0)"/>
       <use xlink:href="#DejaVuSans-35" transform="translate(179.199219 0)"/>
      </g>
     </g>
    </g>
    <g id="ytick_6">
     <g id="line2d_13">
      <g>
       <use xlink:href="#m2ea20f64d9" x="56.09" y="154.148892" style="stroke: #000000; stroke-width: 0.8"/>
      </g>
     </g>
     <g id="text_14">
      <!-- 0.0 -->
      <g transform="translate(33.186875 157.948111) scale(0.1 -0.1)">
       <use xlink:href="#DejaVuSans-30"/>
       <use xlink:href="#DejaVuSans-2e" transform="translate(63.623047 0)"/>
       <use xlink:href="#DejaVuSans-30" transform="translate(95.410156 0)"/>
      </g>
     </g>
    </g>
    <g id="ytick_7">
     <g id="line2d_14">
      <g>
       <use xlink:href="#m2ea20f64d9" x="56.09" y="122.615209" style="stroke: #000000; stroke-width: 0.8"/>
      </g>
     </g>
     <g id="text_15">
      <!-- 0.5 -->
      <g transform="translate(33.186875 126.414428) scale(0.1 -0.1)">
       <use xlink:href="#DejaVuSans-30"/>
       <use xlink:href="#DejaVuSans-2e" transform="translate(63.623047 0)"/>
       <use xlink:href="#DejaVuSans-35" transform="translate(95.410156 0)"/>
      </g>
     </g>
    </g>
    <g id="ytick_8">
     <g id="line2d_15">
      <g>
       <use xlink:href="#m2ea20f64d9" x="56.09" y="91.081526" style="stroke: #000000; stroke-width: 0.8"/>
      </g>
     </g>
     <g id="text_16">
      <!-- 1.0 -->
      <g transform="translate(33.186875 94.880745) scale(0.1 -0.1)">
       <use xlink:href="#DejaVuSans-31"/>
       <use xlink:href="#DejaVuSans-2e" transform="translate(63.623047 0)"/>
       <use xlink:href="#DejaVuSans-30" transform="translate(95.410156 0)"/>
      </g>
     </g>
    </g>
    <g id="ytick_9">
     <g id="line2d_16">
      <g>
       <use xlink:href="#m2ea20f64d9" x="56.09" y="59.547843" style="stroke: #000000; stroke-width: 0.8"/>
      </g>
     </g>
     <g id="text_17">
      <!-- 1.5 -->
      <g transform="translate(33.186875 63.347061) scale(0.1 -0.1)">
       <use xlink:href="#DejaVuSans-31"/>
       <use xlink:href="#DejaVuSans-2e" transform="translate(63.623047 0)"/>
       <use xlink:href="#DejaVuSans-35" transform="translate(95.410156 0)"/>
      </g>
     </g>
    </g>
    <g id="text_18">
     <!-- energy -->
     <g transform="translate(18.7275 193.723437) rotate(-90) scale(0.1 -0.1)">
      <defs>
       <path id="DejaVuSans-6e" d="M 3513 2113 
L 3513 0 
L 2938 0 
L 2938 2094 
Q 2938 2591 2744 2837 
Q 2550 3084 2163 3084 
Q 1697 3084 1428 2787 
Q 1159 2491 1159 1978 
L 1159 0 
L 581 0 
L 581 3500 
L 1159 3500 
L 1159 2956 
Q 1366 3272 1645 3428 
Q 1925 3584 2291 3584 
Q 2894 3584 3203 3211 
Q 3513 2838 3513 2113 
z
" transform="scale(0.015625)"/>
       <path id="DejaVuSans-72" d="M 2631 2963 
Q 2534 3019 2420 3045 
Q 2306 3072 2169 3072 
Q 1681 3072 1420 2755 
Q 1159 2438 1159 1844 
L 1159 0 
L 581 0 
L 581 3500 
L 1159 3500 
L 1159 2956 
Q 1341 3275 1631 3429 
Q 1922 3584 2338 3584 
Q 2397 3584 2469 3576 
Q 2541 3569 2628 3553 
L 2631 2963 
z
" transform="scale(0.015625)"/>
       <path id="DejaVuSans-67" d="M 2906 1791 
Q 2906 2416 2648 2759 
Q 2391 3103 1925 3103 
Q 1463 3103 1205 2759 
Q 947 2416 947 1791 
Q 947 1169 1205 825 
Q 1463 481 1925 481 
Q 2391 481 2648 825 
Q 2906 1169 2906 1791 
z
M 3481 434 
Q 3481 -459 3084 -895 
Q 2688 -1331 1869 -1331 
Q 1566 -1331 1297 -1286 
Q 1028 -1241 775 -1147 
L 775 -588 
Q 1028 -725 1275 -790 
Q 1522 -856 1778 -856 
Q 2344 -856 2625 -561 
Q 2906 -266 2906 331 
L 2906 616 
Q 2728 306 2450 153 
Q 2172 0 1784 0 
Q 1141 0 747 490 
Q 353 981 353 1791 
Q 353 2603 747 3093 
Q 1141 3584 1784 3584 
Q 2172 3584 2450 3431 
Q 2728 3278 2906 2969 
L 2906 3500 
L 3481 3500 
L 3481 434 
z
" transform="scale(0.015625)"/>
       <path id="DejaVuSans-79" d="M 2059 -325 
Q 1816 -950 1584 -1140 
Q 1353 -1331 966 -1331 
L 506 -1331 
L 506 -850 
L 844 -850 
Q 1081 -850 1212 -737 
Q 1344 -625 1503 -206 
L 1606 56 
L 191 3500 
L 800 3500 
L 1894 763 
L 2988 3500 
L 3597 3500 
L 2059 -325 
z
" transform="scale(0.015625)"/>
      </defs>
      <use xlink:href="#DejaVuSans-65"/>
      <use xlink:href="#DejaVuSans-6e" transform="translate(61.523438 0)"/>
      <use xlink:href="#DejaVuSans-65" transform="translate(124.902344 0)"/>
      <use xlink:href="#DejaVuSans-72" transform="translate(186.425781 0)"/>
      <use xlink:href="#DejaVuSans-67" transform="translate(225.789062 0)"/>
      <use xlink:href="#DejaVuSans-79" transform="translate(289.265625 0)"/>
     </g>
    </g>
   </g>
   <g id="line2d_17">
    <path d="M 85.776818 193.22388 
L 96.039596 193.210144 
L 105.899929 193.202754 
L 115.961502 193.197491 
L 126.023075 193.19307 
L 136.084649 193.189142 
L 146.3473 193.185439 
L 156.408724 193.181755 
L 166.470147 193.177222 
L 176.53157 193.169587 
L 186.593 193.153547 
L 196.654423 193.11867 
L 206.715846 193.043044 
L 216.77727 192.879489 
L 226.838693 192.555601 
L 236.900116 192.076706 
L 246.96154 191.380304 
L 257.022963 190.450933 
L 267.084386 189.22143 
L 277.14581 187.606818 
L 287.207245 185.676317 
L 297.269268 183.636895 
L 307.331291 181.861893 
L 317.393314 180.527844 
L 327.254097 179.605852 
L 337.31612 178.949763 
L 347.378143 178.481335 
L 357.440166 178.128229 
L 367.502189 177.84857 
L 377.564212 177.616188 
L 387.626235 177.415745 
L 397.688258 177.237443 
L 407.750281 177.074606 
L 417.812304 176.922535 
L 427.874327 176.777858 
L 437.93635 176.638094 
L 447.998373 176.501421 
L 458.208022 176.364736 
L 468.195033 176.235772 
L 478.278118 176.104741 
L 488.340117 175.97093 
L 498.400941 175.836478 
L 508.461764 175.700943 
L 518.522588 175.5641 
L 528.583412 175.425765 
L 538.644235 175.285821 
L 548.705059 175.144324 
L 558.765883 175.001367 
L 568.826706 174.85695 
L 578.88753 174.711262 
L 588.948353 174.564638 
L 599.009177 174.417232 
L 609.070001 174.269445 
L 619.130824 174.12161 
L 629.191648 173.97412 
L 639.252472 173.827387 
L 649.313295 173.68165 
L 659.374119 173.537116 
L 669.434942 173.393851 
L 679.495766 173.252239 
" clip-path="url(#p7e136de7a2)" style="fill: none; stroke: #1f77b4; stroke-width: 1.5; stroke-linecap: square"/>
   </g>
   <g id="line2d_18">
    <path d="M 85.776818 150.975259 
L 96.039596 150.978534 
L 105.899929 150.971242 
L 115.961502 150.947023 
L 126.023075 150.90126 
L 136.084649 150.828944 
L 146.3473 150.720094 
L 156.408724 150.566349 
L 166.470147 150.343821 
L 176.53157 150.011669 
L 186.593 149.492806 
L 196.654423 148.641459 
L 206.715846 147.198023 
L 216.77727 144.76996 
L 226.838693 140.906488 
L 236.900116 135.167228 
L 246.96154 127.066965 
L 257.022963 115.889522 
L 267.084386 100.819863 
L 277.14581 82.285093 
L 287.207245 64.418338 
L 297.269268 53.244172 
L 307.331291 51.643882 
L 317.393314 57.732509 
L 327.254097 67.612137 
L 337.31612 78.772861 
L 347.378143 89.23109 
L 357.440166 97.994217 
L 367.502189 105.36667 
L 377.564212 110.936954 
L 387.626235 115.178573 
L 397.688258 118.36041 
L 407.750281 120.747699 
L 417.812304 122.348997 
L 427.874327 123.368395 
L 437.93635 123.952972 
L 447.998373 124.189317 
L 458.208022 124.041174 
L 468.195033 123.634877 
L 478.278118 122.989804 
L 488.340117 122.183611 
L 498.400941 121.302499 
L 508.461764 120.409605 
L 518.522588 119.514719 
L 528.583412 118.616563 
L 538.644235 117.718809 
L 548.705059 116.820679 
L 558.765883 115.938496 
L 568.826706 115.092888 
L 578.88753 114.286405 
L 588.948353 113.526825 
L 599.009177 112.827236 
L 609.070001 112.187 
L 619.130824 111.60609 
L 629.191648 111.084108 
L 639.252472 110.625151 
L 649.313295 110.22955 
L 659.374119 109.896688 
L 669.434942 109.62795 
L 679.495766 109.42236 
" clip-path="url(#p7e136de7a2)" style="fill: none; stroke: #ff7f0e; stroke-width: 1.5; stroke-linecap: square"/>
   </g>
   <g id="line2d_19">
    <path d="M 85.776818 154.148892 
L 96.039596 154.076063 
L 105.899929 153.880867 
L 115.961502 153.554866 
L 126.023075 153.093639 
L 136.084649 152.483988 
L 146.3473 151.689038 
L 156.408724 150.712468 
L 166.470147 149.504063 
L 176.53157 148.016729 
L 186.593 146.193797 
L 196.654423 143.979705 
L 206.715846 141.349598 
L 216.77727 138.357196 
L 226.838693 135.162076 
L 236.900116 132.032801 
L 246.96154 129.368477 
L 257.022963 127.865886 
L 267.084386 128.624478 
L 277.14581 132.590542 
L 287.207245 138.781854 
L 297.269268 144.54558 
L 307.331291 147.725014 
L 317.393314 148.066927 
L 327.254097 146.517897 
L 337.31612 144.041602 
L 347.378143 141.510778 
L 357.440166 139.595968 
L 367.502189 137.985649 
L 377.564212 137.204048 
L 387.626235 136.920316 
L 397.688258 137.000603 
L 407.750281 137.295242 
L 417.812304 137.890008 
L 427.874327 138.657031 
L 437.93635 139.511514 
L 447.998373 140.418049 
L 458.208022 141.466196 
L 468.195033 142.534339 
L 478.278118 143.658897 
L 488.340117 144.779803 
L 498.400941 145.833432 
L 508.461764 146.775911 
L 518.522588 147.614889 
L 528.583412 148.367491 
L 538.644235 149.044521 
L 548.705059 149.660178 
L 558.765883 150.210641 
L 568.826706 150.687132 
L 578.88753 151.098351 
L 588.948353 151.447162 
L 599.009177 151.730384 
L 609.070001 151.957727 
L 619.130824 152.137369 
L 629.191648 152.276937 
L 639.252472 152.378683 
L 649.313295 152.447679 
L 659.374119 152.489043 
L 669.434942 152.50497 
L 679.495766 152.499183 
" clip-path="url(#p7e136de7a2)" style="fill: none; stroke: #2ca02c; stroke-width: 1.5; stroke-linecap: square"/>
   </g>
   <g id="line2d_20">
    <path d="M 85.776818 196.397514 
L 96.039596 196.45333 
L 105.899929 196.648435 
L 115.961502 196.993386 
L 126.023075 197.495956 
L 136.084649 198.173997 
L 146.3473 199.07409 
L 156.408724 200.200724 
L 166.470147 201.627125 
L 176.53157 203.43897 
L 186.593 205.76473 
L 196.654423 208.795289 
L 206.715846 212.79321 
L 216.77727 218.050119 
L 226.838693 224.784824 
L 236.900116 233.174454 
L 246.96154 243.242654 
L 257.022963 254.993309 
L 267.084386 268.07487 
L 277.14581 281.028951 
L 287.207245 290.773897 
L 297.269268 294.144915 
L 307.331291 290.790798 
L 317.393314 283.026195 
L 327.254097 273.773602 
L 337.31612 264.433091 
L 347.378143 256.037259 
L 357.440166 248.83583 
L 367.502189 242.794034 
L 377.564212 237.772971 
L 387.626235 233.614638 
L 397.688258 230.174212 
L 407.750281 227.329447 
L 417.812304 224.981313 
L 427.874327 223.050222 
L 437.93635 221.471389 
L 447.998373 220.191841 
L 458.208022 219.155147 
L 468.195033 218.364343 
L 478.278118 217.753826 
L 488.340117 217.305305 
L 498.400941 216.998332 
L 508.461764 216.813211 
L 518.522588 216.732281 
L 528.583412 216.739499 
L 538.644235 216.820274 
L 548.705059 216.961256 
L 558.765883 217.150016 
L 568.826706 217.374713 
L 578.88753 217.624288 
L 588.948353 217.888433 
L 599.009177 218.157397 
L 609.070001 218.422504 
L 619.130824 218.675936 
L 629.191648 218.910865 
L 639.252472 219.12133 
L 649.313295 219.30221 
L 659.374119 219.449177 
L 669.434942 219.558709 
L 679.495766 219.628478 
" clip-path="url(#p7e136de7a2)" style="fill: none; stroke: #d62728; stroke-width: 1.5; stroke-linecap: square"/>
   </g>
   <g id="line2d_21">
    <path d="M 85.776818 193.253366 
L 96.039596 193.247998 
L 105.899929 193.245743 
L 115.961502 193.243976 
L 126.023075 193.242469 
L 136.084649 193.241179 
L 146.3473 193.240037 
L 156.408724 193.238886 
L 166.470147 193.237187 
L 176.53157 193.233579 
L 186.593 193.224846 
L 196.654423 193.204701 
L 206.715846 193.157536 
L 216.77727 193.058716 
L 226.838693 192.865209 
L 236.900116 192.549327 
L 246.96154 192.086434 
L 257.022963 191.458505 
L 267.084386 190.637809 
L 277.14581 189.5815 
L 287.207245 188.290758 
L 297.269268 186.91757 
L 307.331291 185.769437 
L 317.393314 184.952121 
L 327.254097 184.402182 
L 337.31612 184.005968 
L 347.378143 183.711929 
L 357.440166 183.478002 
L 367.64317 183.284802 
L 377.710303 183.12292 
L 387.727323 182.980006 
L 397.803691 182.847772 
L 407.849234 182.718267 
L 417.884582 182.593111 
L 427.874447 182.478391 
L 437.953214 182.366336 
L 447.994056 182.25644 
L 458.074574 182.156175 
L 468.140531 182.055476 
L 478.266076 181.948676 
L 488.36329 181.833952 
L 498.370235 181.713612 
L 508.444637 181.588595 
L 518.495433 181.461716 
L 528.568635 181.331647 
L 538.650664 181.194772 
L 548.627912 181.057204 
L 558.779604 180.913811 
L 568.825219 180.768217 
L 578.975808 180.620647 
L 588.965769 180.474424 
L 599.026593 180.325971 
L 609.087416 180.178377 
L 619.14824 180.032202 
L 629.209064 179.887715 
L 639.269887 179.745333 
L 649.330711 179.605478 
L 659.391535 179.468398 
L 669.452358 179.334284 
L 679.513182 179.203332 
" clip-path="url(#p7e136de7a2)" style="fill: none; stroke: #9467bd; stroke-width: 1.5; stroke-linecap: square"/>
   </g>
   <g id="line2d_22">
    <path d="M 85.776818 150.974715 
L 96.039596 150.982299 
L 105.899929 150.978643 
L 115.961502 150.955715 
L 126.023075 150.909753 
L 136.084649 150.836042 
L 146.3473 150.724034 
L 156.408724 150.563852 
L 166.470147 150.327922 
L 176.53157 149.967816 
L 186.593 149.391803 
L 196.654423 148.430601 
L 206.715846 146.800033 
L 216.77727 144.119694 
L 226.838693 139.998 
L 236.900116 134.007167 
L 246.96154 125.576326 
L 257.022963 113.989804 
L 267.084386 98.332293 
L 277.14581 78.385131 
L 287.207245 58.739461 
L 297.269268 47.445455 
L 307.331291 47.561543 
L 317.393314 55.408726 
L 327.254097 66.119229 
L 337.31612 77.386562 
L 347.378143 87.716914 
L 357.440166 96.173918 
L 367.64317 103.397536 
L 377.710303 108.459905 
L 387.727323 112.174858 
L 397.803691 114.874048 
L 407.849234 116.746569 
L 417.884582 117.835511 
L 427.874447 118.365643 
L 437.953214 118.482295 
L 447.994056 118.223755 
L 458.074574 117.611348 
L 468.140531 116.74885 
L 478.266076 115.638831 
L 488.36329 114.416978 
L 498.370235 113.146407 
L 508.444637 111.877911 
L 518.495433 110.649299 
L 528.568635 109.449625 
L 538.650664 108.289685 
L 548.627912 107.197017 
L 558.779604 106.166123 
L 568.825219 105.272102 
L 578.975808 104.483858 
L 588.965769 103.813102 
L 599.026593 103.248082 
L 609.087416 102.802379 
L 619.14824 102.47745 
L 629.209064 102.270218 
L 639.269887 102.175262 
L 649.330711 102.182878 
L 659.391535 102.28575 
L 669.452358 102.475837 
L 679.513182 102.743339 
" clip-path="url(#p7e136de7a2)" style="fill: none; stroke: #8c564b; stroke-width: 1.5; stroke-linecap: square"/>
   </g>
   <g id="line2d_23">
    <path d="M 85.776818 154.148892 
L 96.039596 154.071335 
L 105.899929 153.871102 
L 115.961502 153.541018 
L 126.023075 153.075309 
L 136.084649 152.459625 
L 146.3473 151.655859 
L 156.408724 150.666842 
L 166.470147 149.440677 
L 176.53157 147.928343 
L 186.593 146.071342 
L 196.654423 143.813116 
L 206.715846 141.131097 
L 216.77727 138.077345 
L 226.838693 134.795817 
L 236.900116 131.53426 
L 246.96154 128.68456 
L 257.022963 126.872795 
L 267.084386 127.251685 
L 277.14581 131.286374 
L 287.207245 137.919387 
L 297.269268 143.859913 
L 307.331291 146.955664 
L 317.393314 147.353932 
L 327.254097 146.163107 
L 337.31612 144.173718 
L 347.378143 141.938466 
L 357.440166 140.24028 
L 367.64317 138.606392 
L 377.710303 137.988634 
L 387.727323 137.81642 
L 397.803691 137.948783 
L 407.849234 138.293836 
L 417.884582 138.915654 
L 427.874447 139.66872 
L 437.953214 140.491425 
L 447.994056 141.386146 
L 458.074574 142.381904 
L 468.140531 143.41297 
L 478.266076 144.510862 
L 488.36329 145.568495 
L 498.370235 146.553549 
L 508.444637 147.438356 
L 518.495433 148.214883 
L 528.568635 148.917397 
L 538.650664 149.558197 
L 548.627912 150.135342 
L 558.779604 150.658172 
L 568.825219 151.08134 
L 578.975808 151.439052 
L 588.965769 151.740851 
L 599.026593 151.996632 
L 609.087416 152.200561 
L 619.14824 152.353977 
L 629.209064 152.460624 
L 639.269887 152.524724 
L 649.330711 152.553457 
L 659.391535 152.550748 
L 669.452358 152.520745 
L 679.513182 152.468813 
" clip-path="url(#p7e136de7a2)" style="fill: none; stroke: #e377c2; stroke-width: 1.5; stroke-linecap: square"/>
   </g>
   <g id="line2d_24">
    <path d="M 85.776818 196.427546 
L 96.039596 196.492146 
L 105.899929 196.693781 
L 115.961502 197.045028 
L 126.023075 197.555192 
L 136.084649 198.243297 
L 146.3473 199.157925 
L 156.408724 200.305979 
L 166.470147 201.766378 
L 176.53157 203.635203 
L 186.593 206.05949 
L 196.654423 209.258772 
L 206.715846 213.524195 
L 216.77727 219.159462 
L 226.838693 226.369183 
L 236.900116 235.305673 
L 246.96154 246.123333 
L 257.022963 258.893685 
L 267.084386 273.351605 
L 277.14581 288.207765 
L 287.207245 299.929686 
L 297.269268 303.90998 
L 307.331291 299.550016 
L 317.393314 290.487228 
L 327.254097 280.41763 
L 337.31612 270.743476 
L 347.378143 262.354334 
L 357.440166 255.361589 
L 367.64317 249.57866 
L 377.710303 244.972166 
L 387.727323 241.286519 
L 397.803691 238.322725 
L 407.849234 235.975651 
L 417.884582 234.139733 
L 427.874447 232.741811 
L 437.953214 231.690403 
L 447.994056 230.944326 
L 458.074574 230.460709 
L 468.140531 230.191437 
L 478.266076 230.096775 
L 488.36329 230.146267 
L 498.370235 230.311442 
L 508.444637 230.570107 
L 518.495433 230.895322 
L 528.568635 231.262406 
L 538.650664 231.64467 
L 548.627912 232.022633 
L 558.779604 232.387297 
L 568.825219 232.712558 
L 578.975808 232.995521 
L 588.965769 233.218248 
L 599.026593 233.37904 
L 609.087416 233.473228 
L 619.14824 233.498557 
L 629.209064 233.454658 
L 639.269887 233.343133 
L 649.330711 233.166936 
L 659.391535 232.929691 
L 669.452358 232.635488 
L 679.513182 232.288959 
" clip-path="url(#p7e136de7a2)" style="fill: none; stroke: #7f7f7f; stroke-width: 1.5; stroke-linecap: square"/>
   </g>
   <g id="line2d_25">
    <path d="M 85.776818 193.22388 
L 96.039596 193.223884 
L 105.899929 193.223895 
L 115.961502 193.223955 
L 126.023075 193.224102 
L 136.084649 193.224395 
L 146.3473 193.22491 
L 156.408724 193.225737 
L 166.470147 193.227041 
L 176.53157 193.229098 
L 186.593 193.232346 
L 196.654423 193.237458 
L 206.715846 193.245405 
L 216.77727 193.257148 
L 226.838693 193.272951 
L 236.900116 193.293431 
L 246.96154 193.318361 
L 257.022963 193.346483 
L 267.084386 193.374053 
L 277.14581 193.392596 
L 287.207245 193.390596 
L 297.269268 193.367846 
L 307.331291 193.339867 
L 317.393314 193.318602 
L 327.254097 193.305152 
L 337.31612 193.296025 
L 347.378143 193.288852 
L 357.440166 193.281928 
L 367.502189 193.274617 
L 377.564212 193.266493 
L 387.626235 193.257892 
L 397.688258 193.249325 
L 407.750281 193.240443 
L 417.812304 193.231361 
L 427.874327 193.222023 
L 437.93635 193.212479 
L 447.998373 193.20269 
L 458.060397 193.192619 
L 468.131511 193.182879 
L 478.200491 193.174256 
L 488.316608 193.163817 
L 498.377432 193.152457 
L 508.438256 193.140789 
L 518.499079 193.128835 
L 528.559903 193.116558 
L 538.620727 193.103964 
L 548.68155 193.091108 
L 558.742374 193.077936 
L 568.803197 193.064415 
L 578.864021 193.050563 
L 588.924845 193.036436 
L 598.985668 193.022069 
L 609.046492 193.007532 
L 619.107316 192.992845 
L 629.168139 192.977989 
L 639.228963 192.963043 
L 649.289786 192.947992 
L 659.35061 192.932846 
L 669.411434 192.917708 
L 679.472257 192.902664 
" clip-path="url(#p7e136de7a2)" style="fill: none; stroke-dasharray: 5.55,2.4; stroke-dashoffset: 0; stroke: #bcbd22; stroke-width: 1.5"/>
   </g>
   <g id="line2d_26">
    <path d="M 85.776818 150.975259 
L 96.039596 150.991463 
L 105.899929 150.989917 
L 115.961502 150.969231 
L 126.023075 150.926339 
L 136.084649 150.85677 
L 146.3473 150.750912 
L 156.408724 150.600681 
L 166.470147 150.383212 
L 176.53157 150.060021 
L 186.593 149.559163 
L 196.654423 148.747931 
L 206.715846 147.3844 
L 216.77727 145.084785 
L 226.838693 141.401447 
L 236.900116 135.887386 
L 246.96154 127.920389 
L 257.022963 116.904072 
L 267.084386 101.914268 
L 277.14581 83.465844 
L 287.207245 65.506194 
L 297.269268 53.667538 
L 307.331291 50.640531 
L 317.393314 55.059934 
L 327.254097 63.493357 
L 337.31612 73.510673 
L 347.378143 83.231757 
L 357.440166 91.415199 
L 367.502189 98.202133 
L 377.564212 103.231707 
L 387.626235 106.851826 
L 397.688258 109.371349 
L 407.750281 111.110444 
L 417.812304 112.1116 
L 427.874327 112.518685 
L 437.93635 112.49483 
L 447.998373 112.157168 
L 458.060397 111.509752 
L 468.131511 110.597495 
L 478.200491 109.51647 
L 488.316608 108.27867 
L 498.377432 107.011874 
L 508.438256 105.754693 
L 518.499079 104.56098 
L 528.559903 103.445213 
L 538.620727 102.411579 
L 548.68155 101.46225 
L 558.742374 100.599001 
L 568.803197 99.834334 
L 578.864021 99.177336 
L 588.924845 98.625454 
L 598.985668 98.178977 
L 609.046492 97.838428 
L 619.107316 97.602202 
L 629.168139 97.465348 
L 639.228963 97.423942 
L 649.289786 97.468596 
L 659.35061 97.593887 
L 669.411434 97.790383 
L 679.472257 98.04651 
" clip-path="url(#p7e136de7a2)" style="fill: none; stroke-dasharray: 5.55,2.4; stroke-dashoffset: 0; stroke: #17becf; stroke-width: 1.5"/>
   </g>
   <g id="line2d_27">
    <path d="M 85.776818 154.148892 
L 96.039596 154.076752 
L 105.899929 153.883154 
L 115.961502 153.558877 
L 126.023075 153.09903 
L 136.084649 152.490255 
L 146.3473 151.695561 
L 156.408724 150.718415 
L 166.470147 149.508103 
L 176.53157 148.016291 
L 186.593 146.183499 
L 196.654423 143.947572 
L 206.715846 141.271177 
L 216.77727 138.188569 
L 226.838693 134.851745 
L 236.900116 131.504795 
L 246.96154 128.547946 
L 257.022963 126.660919 
L 267.084386 126.99893 
L 277.14581 130.510712 
L 287.207245 136.546864 
L 297.269268 142.843541 
L 307.331291 147.213374 
L 317.393314 148.940432 
L 327.254097 148.596145 
L 337.31612 147.04613 
L 347.378143 145.012239 
L 357.440166 143.364086 
L 367.502189 141.925008 
L 377.564212 141.165065 
L 387.626235 140.891301 
L 397.688258 140.94636 
L 407.750281 141.140608 
L 417.812304 141.542323 
L 427.874327 142.100805 
L 437.93635 142.731486 
L 447.998373 143.383465 
L 458.060397 144.108349 
L 468.131511 144.902894 
L 478.200491 145.711993 
L 488.316608 146.585121 
L 498.377432 147.414984 
L 508.438256 148.183328 
L 518.499079 148.863323 
L 528.559903 149.46346 
L 538.620727 149.998291 
L 548.68155 150.480406 
L 558.742374 150.918978 
L 568.803197 151.309199 
L 578.864021 151.646646 
L 588.924845 151.93678 
L 598.985668 152.180544 
L 609.046492 152.377239 
L 619.107316 152.528455 
L 629.168139 152.638222 
L 639.228963 152.70855 
L 649.289786 152.74643 
L 659.35061 152.755881 
L 669.411434 152.742301 
L 679.472257 152.707305 
" clip-path="url(#p7e136de7a2)" style="fill: none; stroke-dasharray: 5.55,2.4; stroke-dashoffset: 0; stroke: #1f77b4; stroke-width: 1.5"/>
   </g>
   <g id="line2d_28">
    <path d="M 85.776818 196.397514 
L 96.039596 196.45345 
L 105.899929 196.648608 
L 115.961502 196.99363 
L 126.023075 197.49652 
L 136.084649 198.175155 
L 146.3473 199.076225 
L 156.408724 200.204423 
L 166.470147 201.633516 
L 176.53157 203.450571 
L 186.593 205.787465 
L 196.654423 208.839741 
L 206.715846 212.887612 
L 216.77727 218.281575 
L 226.838693 225.317543 
L 236.900116 234.199029 
L 246.96154 245.147815 
L 257.022963 258.079281 
L 267.084386 272.758643 
L 277.14581 287.713818 
L 287.207245 299.635318 
L 297.269268 305.154545 
L 307.331291 303.783734 
L 317.393314 297.61603 
L 327.254097 289.513453 
L 337.31612 281.037011 
L 347.378143 273.342643 
L 357.440166 266.800434 
L 367.502189 261.445262 
L 377.564212 257.167502 
L 387.626235 253.812543 
L 397.688258 251.229405 
L 407.750281 249.287179 
L 417.812304 247.875228 
L 427.874327 246.900326 
L 437.93635 246.283952 
L 447.998373 245.959842 
L 458.060397 245.8723 
L 468.131511 245.980277 
L 478.200491 246.243579 
L 488.316608 246.597815 
L 498.377432 247.023384 
L 508.438256 247.50055 
L 518.499079 248.002316 
L 528.559903 248.505675 
L 538.620727 248.991878 
L 548.68155 249.446234 
L 558.742374 249.857736 
L 568.803197 250.218671 
L 578.864021 250.524361 
L 588.924845 250.771981 
L 598.985668 250.960328 
L 609.046492 251.089656 
L 619.107316 251.159974 
L 629.168139 251.172206 
L 639.228963 251.12833 
L 649.289786 251.030751 
L 659.35061 250.880868 
L 669.411434 250.682808 
L 679.472257 250.446631 
" clip-path="url(#p7e136de7a2)" style="fill: none; stroke-dasharray: 5.55,2.4; stroke-dashoffset: 0; stroke: #ff7f0e; stroke-width: 1.5"/>
   </g>
   <g id="patch_3">
    <path d="M 56.09 318.04 
L 56.09 34.56 
" style="fill: none; stroke: #000000; stroke-width: 0.8; stroke-linejoin: miter; stroke-linecap: square"/>
   </g>
   <g id="patch_4">
    <path d="M 709.2 318.04 
L 709.2 34.56 
" style="fill: none; stroke: #000000; stroke-width: 0.8; stroke-linejoin: miter; stroke-linecap: square"/>
   </g>
   <g id="patch_5">
    <path d="M 56.09 318.04 
L 709.2 318.04 
" style="fill: none; stroke: #000000; stroke-width: 0.8; stroke-linejoin: miter; stroke-linecap: square"/>
   </g>
   <g id="patch_6">
    <path d="M 56.09 34.56 
L 709.2 34.56 
" style="fill: none; stroke: #000000; stroke-width: 0.8; stroke-linejoin: miter; stroke-linecap: square"/>
   </g>
   <g id="legend_1">
    <g id="patch_7">
     <path d="M 197.8608 80.858475 
L 704.342 80.858475 
Q 705.73 80.858475 705.73 79.470475 
L 705.73 39.418 
Q 705.73 38.03 704.342 38.03 
L 197.8608 38.03 
Q 196.4728 38.03 196.4728 39.418 
L 196.4728 79.470475 
Q 196.4728 80.858475 197.8608 80.858475 
z
" style="fill: #ffffff; opacity: 0.8; stroke: #cccccc; stroke-linejoin: miter"/>
    </g>
    <g id="line2d_29">
     <path d="M 199.2488 43.650316 
L 206.1888 43.650316 
L 213.1288 43.650316 
" style="fill: none; stroke: #1f77b4; stroke-width: 1.5; stroke-linecap: square"/>
    </g>
    <g id="text_19">
     <!-- total, N = 128³, non-conservative -->
     <g transform="translate(218.6808 46.079316) scale(0.0694 -0.0694)">
      <defs>
       <path id="DejaVuSans-6f" d="M 1959 3097 
Q 1497 3097 1228 2736 
Q 959 2375 959 1747 
Q 959 1119 1226 758 
Q 1494 397 1959 397 
Q 2419 397 2687 759 
Q 2956 1122 2956 1747 
Q 2956 2369 2687 2733 
Q 2419 3097 1959 3097 
z
M 1959 3584 
Q 2709 3584 3137 3096 
Q 3566 2609 3566 1747 
Q 3566 888 3137 398 
Q 2709 -91 1959 -91 
Q 1206 -91 779 398 
Q 353 888 353 1747 
Q 353 2609 779 3096 
Q 1206 3584 1959 3584 
z
" transform="scale(0.015625)"/>
       <path id="DejaVuSans-61" d="M 2194 1759 
Q 1497 1759 1228 1600 
Q 959 1441 959 1056 
Q 959 750 1161 570 
Q 1363 391 1709 391 
Q 2188 391 2477 730 
Q 2766 1069 2766 1631 
L 2766 1759 
L 2194 1759 
z
M 3341 1997 
L 3341 0 
L 2766 0 
L 2766 531 
Q 2569 213 2275 61 
Q 1981 -91 1556 -91 
Q 1019 -91 701 211 
Q 384 513 384 1019 
Q 384 1609 779 1909 
Q 1175 2209 1959 2209 
L 2766 2209 
L 2766 2266 
Q 2766 2663 2505 2880 
Q 2244 3097 1772 3097 
Q 1472 3097 1187 3025 
Q 903 2953 641 2809 
L 641 3341 
Q 956 3463 1253 3523 
Q 1550 3584 1831 3584 
Q 2591 3584 2966 3190 
Q 3341 2797 3341 1997 
z
" transform="scale(0.015625)"/>
       <path id="DejaVuSans-6c" d="M 603 4863 
L 1178 4863 
L 1178 0 
L 603 0 
L 603 4863 
z
" transform="scale(0.015625)"/>
       <path id="DejaVuSans-2c" d="M 750 794 
L 1409 794 
L 1409 256 
L 897 -744 
L 494 -744 
L 750 256 
L 750 794 
z
" transform="scale(0.015625)"/>
       <path id="DejaVuSans-20" transform="scale(0.015625)"/>
       <path id="DejaVuSans-4e" d="M 628 4666 
L 1478 4666 
L 3547 763 
L 3547 4666 
L 4159 4666 
L 4159 0 
L 3309 0 
L 1241 3903 
L 1241 0 
L 628 0 
L 628 4666 
z
" transform="scale(0.015625)"/>
       <path id="DejaVuSans-3d" d="M 678 2906 
L 4684 2906 
L 4684 2381 
L 678 2381 
L 678 2906 
z
M 678 1631 
L 4684 1631 
L 4684 1100 
L 678 1100 
L 678 1631 
z
" transform="scale(0.015625)"/>
       <path id="DejaVuSans-38" d="M 2034 2216 
Q 1584 2216 1326 1975 
Q 1069 1734 1069 1313 
Q 1069 891 1326 650 
Q 1584 409 2034 409 
Q 2484 409 2743 651 
Q 3003 894 3003 1313 
Q 3003 1734 2745 1975 
Q 2488 2216 2034 2216 
z
M 1403 2484 
Q 997 2584 770 2862 
Q 544 3141 544 3541 
Q 544 4100 942 4425 
Q 1341 4750 2034 4750 
Q 2731 4750 3128 4425 
Q 3525 4100 3525 3541 
Q 3525 3141 3298 2862 
Q 3072 2584 2669 2484 
Q 3125 2378 3379 2068 
Q 3634 1759 3634 1313 
Q 3634 634 3220 271 
Q 2806 -91 2034 -91 
Q 1263 -91 848 271 
Q 434 634 434 1313 
Q 434 1759 690 2068 
Q 947 2378 1403 2484 
z
M 1172 3481 
Q 1172 3119 1398 2916 
Q 1625 2713 2034 2713 
Q 2441 2713 2670 2916 
Q 2900 3119 2900 3481 
Q 2900 3844 2670 4047 
Q 2441 4250 2034 4250 
Q 1625 4250 1398 4047 
Q 1172 3844 1172 3481 
z
" transform="scale(0.015625)"/>
       <path id="DejaVuSans-b3" d="M 1638 3500 
Q 1925 3444 2083 3273 
Q 2241 3103 2241 2847 
Q 2241 2459 1944 2250 
Q 1647 2041 1094 2041 
Q 916 2041 720 2073 
Q 525 2106 306 2169 
L 306 2547 
Q 469 2463 655 2422 
Q 841 2381 1050 2381 
Q 1391 2381 1578 2504 
Q 1766 2628 1766 2847 
Q 1766 3078 1592 3197 
Q 1419 3316 1081 3316 
L 813 3316 
L 813 3653 
L 1106 3653 
Q 1400 3653 1551 3751 
Q 1703 3850 1703 4038 
Q 1703 4219 1547 4314 
Q 1391 4409 1094 4409 
Q 969 4409 809 4381 
Q 650 4353 397 4281 
L 397 4641 
Q 625 4694 825 4722 
Q 1025 4750 1197 4750 
Q 1647 4750 1911 4565 
Q 2175 4381 2175 4072 
Q 2175 3856 2034 3706 
Q 1894 3556 1638 3500 
z
" transform="scale(0.015625)"/>
       <path id="DejaVuSans-2d" d="M 313 2009 
L 1997 2009 
L 1997 1497 
L 313 1497 
L 313 2009 
z
" transform="scale(0.015625)"/>
       <path id="DejaVuSans-63" d="M 3122 3366 
L 3122 2828 
Q 2878 2963 2633 3030 
Q 2388 3097 2138 3097 
Q 1578 3097 1268 2742 
Q 959 2388 959 1747 
Q 959 1106 1268 751 
Q 1578 397 2138 397 
Q 2388 397 2633 464 
Q 2878 531 3122 666 
L 3122 134 
Q 2881 22 2623 -34 
Q 2366 -91 2075 -91 
Q 1284 -91 818 406 
Q 353 903 353 1747 
Q 353 2603 823 3093 
Q 1294 3584 2113 3584 
Q 2378 3584 2631 3529 
Q 2884 3475 3122 3366 
z
" transform="scale(0.015625)"/>
       <path id="DejaVuSans-73" d="M 2834 3397 
L 2834 2853 
Q 2591 2978 2328 3040 
Q 2066 3103 1784 3103 
Q 1356 3103 1142 2972 
Q 928 2841 928 2578 
Q 928 2378 1081 2264 
Q 1234 2150 1697 2047 
L 1894 2003 
Q 2506 1872 2764 1633 
Q 3022 1394 3022 966 
Q 3022 478 2636 193 
Q 2250 -91 1575 -91 
Q 1294 -91 989 -36 
Q 684 19 347 128 
L 347 722 
Q 666 556 975 473 
Q 1284 391 1588 391 
Q 1994 391 2212 530 
Q 2431 669 2431 922 
Q 2431 1156 2273 1281 
Q 2116 1406 1581 1522 
L 1381 1569 
Q 847 1681 609 1914 
Q 372 2147 372 2553 
Q 372 3047 722 3315 
Q 1072 3584 1716 3584 
Q 2034 3584 2315 3537 
Q 2597 3491 2834 3397 
z
" transform="scale(0.015625)"/>
       <path id="DejaVuSans-76" d="M 191 3500 
L 800 3500 
L 1894 563 
L 2988 3500 
L 3597 3500 
L 2284 0 
L 1503 0 
L 191 3500 
z
" transform="scale(0.015625)"/>
      </defs>
      <use xlink:href="#DejaVuSans-74"/>
      <use xlink:href="#DejaVuSans-6f" transform="translate(39.208984 0)"/>
      <use xlink:href="#DejaVuSans-74" transform="translate(100.390625 0)"/>
      <use xlink:href="#DejaVuSans-61" transform="translate(139.599609 0)"/>
      <use xlink:href="#DejaVuSans-6c" transform="translate(200.878906 0)"/>
      <use xlink:href="#DejaVuSans-2c" transform="translate(228.662109 0)"/>
      <use xlink:href="#DejaVuSans-20" transform="translate(260.449219 0)"/>
      <use xlink:href="#DejaVuSans-4e" transform="translate(292.236328 0)"/>
      <use xlink:href="#DejaVuSans-20" transform="translate(367.041016 0)"/>
      <use xlink:href="#DejaVuSans-3d" transform="translate(398.828125 0)"/>
      <use xlink:href="#DejaVuSans-20" transform="translate(482.617188 0)"/>
      <use xlink:href="#DejaVuSans-31" transform="translate(514.404297 0)"/>
      <use xlink:href="#DejaVuSans-32" transform="translate(578.027344 0)"/>
      <use xlink:href="#DejaVuSans-38" transform="translate(641.650391 0)"/>
      <use xlink:href="#DejaVuSans-b3" transform="translate(705.273438 0)"/>
      <use xlink:href="#DejaVuSans-2c" transform="translate(745.361328 0)"/>
      <use xlink:href="#DejaVuSans-20" transform="translate(777.148438 0)"/>
      <use xlink:href="#DejaVuSans-6e" transform="translate(808.935547 0)"/>
      <use xlink:href="#DejaVuSans-6f" transform="translate(872.314453 0)"/>
      <use xlink:href="#DejaVuSans-6e" transform="translate(933.496094 0)"/>
      <use xlink:href="#DejaVuSans-2d" transform="translate(996.875 0)"/>
      <use xlink:href="#DejaVuSans-63" transform="translate(1032.958984 0)"/>
      <use xlink:href="#DejaVuSans-6f" transform="translate(1087.939453 0)"/>
      <use xlink:href="#DejaVuSans-6e" transform="translate(1149.121094 0)"/>
      <use xlink:href="#DejaVuSans-73" transform="translate(1212.5 0)"/>
      <use xlink:href="#DejaVuSans-65" transform="translate(1264.599609 0)"/>
      <use xlink:href="#DejaVuSans-72" transform="translate(1326.123047 0)"/>
      <use xlink:href="#DejaVuSans-76" transform="translate(1367.236328 0)"/>
      <use xlink:href="#DejaVuSans-61" transform="translate(1426.416016 0)"/>
      <use xlink:href="#DejaVuSans-74" transform="translate(1487.695312 0)"/>
      <use xlink:href="#DejaVuSans-69" transform="translate(1526.904297 0)"/>
      <use xlink:href="#DejaVuSans-76" transform="translate(1554.6875 0)"/>
      <use xlink:href="#DejaVuSans-65" transform="translate(1613.867188 0)"/>
     </g>
    </g>
    <g id="line2d_30">
     <path d="M 199.2488 53.836934 
L 206.1888 53.836934 
L 213.1288 53.836934 
" style="fill: none; stroke: #ff7f0e; stroke-width: 1.5; stroke-linecap: square"/>
    </g>
    <g id="text_20">
     <!-- internal, N = 128³, non-conservative -->
     <g transform="translate(218.6808 56.265934) scale(0.0694 -0.0694)">
      <use xlink:href="#DejaVuSans-69"/>
      <use xlink:href="#DejaVuSans-6e" transform="translate(27.783203 0)"/>
      <use xlink:href="#DejaVuSans-74" transform="translate(91.162109 0)"/>
      <use xlink:href="#DejaVuSans-65" transform="translate(130.371094 0)"/>
      <use xlink:href="#DejaVuSans-72" transform="translate(191.894531 0)"/>
      <use xlink:href="#DejaVuSans-6e" transform="translate(231.257812 0)"/>
      <use xlink:href="#DejaVuSans-61" transform="translate(294.636719 0)"/>
      <use xlink:href="#DejaVuSans-6c" transform="translate(355.916016 0)"/>
      <use xlink:href="#DejaVuSans-2c" transform="translate(383.699219 0)"/>
      <use xlink:href="#DejaVuSans-20" transform="translate(415.486328 0)"/>
      <use xlink:href="#DejaVuSans-4e" transform="translate(447.273438 0)"/>
      <use xlink:href="#DejaVuSans-20" transform="translate(522.078125 0)"/>
      <use xlink:href="#DejaVuSans-3d" transform="translate(553.865234 0)"/>
      <use xlink:href="#DejaVuSans-20" transform="translate(637.654297 0)"/>
      <use xlink:href="#DejaVuSans-31" transform="translate(669.441406 0)"/>
      <use xlink:href="#DejaVuSans-32" transform="translate(733.064453 0)"/>
      <use xlink:href="#DejaVuSans-38" transform="translate(796.6875 0)"/>
      <use xlink:href="#DejaVuSans-b3" transform="translate(860.310547 0)"/>
      <use xlink:href="#DejaVuSans-2c" transform="translate(900.398438 0)"/>
      <use xlink:href="#DejaVuSans-20" transform="translate(932.185547 0)"/>
      <use xlink:href="#DejaVuSans-6e" transform="translate(963.972656 0)"/>
      <use xlink:href="#DejaVuSans-6f" transform="translate(1027.351562 0)"/>
      <use xlink:href="#DejaVuSans-6e" transform="translate(1088.533203 0)"/>
      <use xlink:href="#DejaVuSans-2d" transform="translate(1151.912109 0)"/>
      <use xlink:href="#DejaVuSans-63" transform="translate(1187.996094 0)"/>
      <use xlink:href="#DejaVuSans-6f" transform="translate(1242.976562 0)"/>
      <use xlink:href="#DejaVuSans-6e" transform="translate(1304.158203 0)"/>
      <use xlink:href="#DejaVuSans-73" transform="translate(1367.537109 0)"/>
      <use xlink:href="#DejaVuSans-65" transform="translate(1419.636719 0)"/>
      <use xlink:href="#DejaVuSans-72" transform="translate(1481.160156 0)"/>
      <use xlink:href="#DejaVuSans-76" transform="translate(1522.273438 0)"/>
      <use xlink:href="#DejaVuSans-61" transform="translate(1581.453125 0)"/>
      <use xlink:href="#DejaVuSans-74" transform="translate(1642.732422 0)"/>
      <use xlink:href="#DejaVuSans-69" transform="translate(1681.941406 0)"/>
      <use xlink:href="#DejaVuSans-76" transform="translate(1709.724609 0)"/>
      <use xlink:href="#DejaVuSans-65" transform="translate(1768.904297 0)"/>
     </g>
    </g>
    <g id="line2d_31">
     <path d="M 199.2488 64.023553 
L 206.1888 64.023553 
L 213.1288 64.023553 
" style="fill: none; stroke: #2ca02c; stroke-width: 1.5; stroke-linecap: square"/>
    </g>
    <g id="text_21">
     <!-- kinetic, N = 128³, non-conservative -->
     <g transform="translate(218.6808 66.452553) scale(0.0694 -0.0694)">
      <defs>
       <path id="DejaVuSans-6b" d="M 581 4863 
L 1159 4863 
L 1159 1991 
L 2875 3500 
L 3609 3500 
L 1753 1863 
L 3688 0 
L 2938 0 
L 1159 1709 
L 1159 0 
L 581 0 
L 581 4863 
z
" transform="scale(0.015625)"/>
      </defs>
      <use xlink:href="#DejaVuSans-6b"/>
      <use xlink:href="#DejaVuSans-69" transform="translate(57.910156 0)"/>
      <use xlink:href="#DejaVuSans-6e" transform="translate(85.693359 0)"/>
      <use xlink:href="#DejaVuSans-65" transform="translate(149.072266 0)"/>
      <use xlink:href="#DejaVuSans-74" transform="translate(210.595703 0)"/>
      <use xlink:href="#DejaVuSans-69" transform="translate(249.804688 0)"/>
      <use xlink:href="#DejaVuSans-63" transform="translate(277.587891 0)"/>
      <use xlink:href="#DejaVuSans-2c" transform="translate(332.568359 0)"/>
      <use xlink:href="#DejaVuSans-20" transform="translate(364.355469 0)"/>
      <use xlink:href="#DejaVuSans-4e" transform="translate(396.142578 0)"/>
      <use xlink:href="#DejaVuSans-20" transform="translate(470.947266 0)"/>
      <use xlink:href="#DejaVuSans-3d" transform="translate(502.734375 0)"/>
      <use xlink:href="#DejaVuSans-20" transform="translate(586.523438 0)"/>
      <use xlink:href="#DejaVuSans-31" transform="translate(618.310547 0)"/>
      <use xlink:href="#DejaVuSans-32" transform="translate(681.933594 0)"/>
      <use xlink:href="#DejaVuSans-38" transform="translate(745.556641 0)"/>
      <use xlink:href="#DejaVuSans-b3" transform="translate(809.179688 0)"/>
      <use xlink:href="#DejaVuSans-2c" transform="translate(849.267578 0)"/>
      <use xlink:href="#DejaVuSans-20" transform="translate(881.054688 0)"/>
      <use xlink:href="#DejaVuSans-6e" transform="translate(912.841797 0)"/>
      <use xlink:href="#DejaVuSans-6f" transform="translate(976.220703 0)"/>
      <use xlink:href="#DejaVuSans-6e" transform="translate(1037.402344 0)"/>
      <use xlink:href="#DejaVuSans-2d" transform="translate(1100.78125 0)"/>
      <use xlink:href="#DejaVuSans-63" transform="translate(1136.865234 0)"/>
      <use xlink:href="#DejaVuSans-6f" transform="translate(1191.845703 0)"/>
      <use xlink:href="#DejaVuSans-6e" transform="translate(1253.027344 0)"/>
      <use xlink:href="#DejaVuSans-73" transform="translate(1316.40625 0)"/>
      <use xlink:href="#DejaVuSans-65" transform="translate(1368.505859 0)"/>
      <use xlink:href="#DejaVuSans-72" transform="translate(1430.029297 0)"/>
      <use xlink:href="#DejaVuSans-76" transform="translate(1471.142578 0)"/>
      <use xlink:href="#DejaVuSans-61" transform="translate(1530.322266 0)"/>
      <use xlink:href="#DejaVuSans-74" transform="translate(1591.601562 0)"/>
      <use xlink:href="#DejaVuSans-69" transform="translate(1630.810547 0)"/>
      <use xlink:href="#DejaVuSans-76" transform="translate(1658.59375 0)"/>
      <use xlink:href="#DejaVuSans-65" transform="translate(1717.773438 0)"/>
     </g>
    </g>
    <g id="line2d_32">
     <path d="M 199.2488 74.210172 
L 206.1888 74.210172 
L 213.1288 74.210172 
" style="fill: none; stroke: #d62728; stroke-width: 1.5; stroke-linecap: square"/>
    </g>
    <g id="text_22">
     <!-- gravitational, N = 128³, non-conservative -->
     <g transform="translate(218.6808 76.639172) scale(0.0694 -0.0694)">
      <use xlink:href="#DejaVuSans-67"/>
      <use xlink:href="#DejaVuSans-72" transform="translate(63.476562 0)"/>
      <use xlink:href="#DejaVuSans-61" transform="translate(104.589844 0)"/>
      <use xlink:href="#DejaVuSans-76" transform="translate(165.869141 0)"/>
      <use xlink:href="#DejaVuSans-69" transform="translate(225.048828 0)"/>
      <use xlink:href="#DejaVuSans-74" transform="translate(252.832031 0)"/>
      <use xlink:href="#DejaVuSans-61" transform="translate(292.041016 0)"/>
      <use xlink:href="#DejaVuSans-74" transform="translate(353.320312 0)"/>
      <use xlink:href="#DejaVuSans-69" transform="translate(392.529297 0)"/>
      <use xlink:href="#DejaVuSans-6f" transform="translate(420.3125 0)"/>
      <use xlink:href="#DejaVuSans-6e" transform="translate(481.494141 0)"/>
      <use xlink:href="#DejaVuSans-61" transform="translate(544.873047 0)"/>
      <use xlink:href="#DejaVuSans-6c" transform="translate(606.152344 0)"/>
      <use xlink:href="#DejaVuSans-2c" transform="translate(633.935547 0)"/>
      <use xlink:href="#DejaVuSans-20" transform="translate(665.722656 0)"/>
      <use xlink:href="#DejaVuSans-4e" transform="translate(697.509766 0)"/>
      <use xlink:href="#DejaVuSans-20" transform="translate(772.314453 0)"/>
      <use xlink:href="#DejaVuSans-3d" transform="translate(804.101562 0)"/>
      <use xlink:href="#DejaVuSans-20" transform="translate(887.890625 0)"/>
      <use xlink:href="#DejaVuSans-31" transform="translate(919.677734 0)"/>
      <use xlink:href="#DejaVuSans-32" transform="translate(983.300781 0)"/>
      <use xlink:href="#DejaVuSans-38" transform="translate(1046.923828 0)"/>
      <use xlink:href="#DejaVuSans-b3" transform="translate(1110.546875 0)"/>
      <use xlink:href="#DejaVuSans-2c" transform="translate(1150.634766 0)"/>
      <use xlink:href="#DejaVuSans-20" transform="translate(1182.421875 0)"/>
      <use xlink:href="#DejaVuSans-6e" transform="translate(1214.208984 0)"/>
      <use xlink:href="#DejaVuSans-6f" transform="translate(1277.587891 0)"/>
      <use xlink:href="#DejaVuSans-6e" transform="translate(1338.769531 0)"/>
      <use xlink:href="#DejaVuSans-2d" transform="translate(1402.148438 0)"/>
      <use xlink:href="#DejaVuSans-63" transform="translate(1438.232422 0)"/>
      <use xlink:href="#DejaVuSans-6f" transform="translate(1493.212891 0)"/>
      <use xlink:href="#DejaVuSans-6e" transform="translate(1554.394531 0)"/>
      <use xlink:href="#DejaVuSans-73" transform="translate(1617.773438 0)"/>
      <use xlink:href="#DejaVuSans-65" transform="translate(1669.873047 0)"/>
      <use xlink:href="#DejaVuSans-72" transform="translate(1731.396484 0)"/>
      <use xlink:href="#DejaVuSans-76" transform="translate(1772.509766 0)"/>
      <use xlink:href="#DejaVuSans-61" transform="translate(1831.689453 0)"/>
      <use xlink:href="#DejaVuSans-74" transform="translate(1892.96875 0)"/>
      <use xlink:href="#DejaVuSans-69" transform="translate(1932.177734 0)"/>
      <use xlink:href="#DejaVuSans-76" transform="translate(1959.960938 0)"/>
      <use xlink:href="#DejaVuSans-65" transform="translate(2019.140625 0)"/>
     </g>
    </g>
    <g id="line2d_33">
     <path d="M 376.959428 43.650316 
L 383.899428 43.650316 
L 390.839428 43.650316 
" style="fill: none; stroke: #9467bd; stroke-width: 1.5; stroke-linecap: square"/>
    </g>
    <g id="text_23">
     <!-- total, N = 256³, non-conservative -->
     <g transform="translate(396.391428 46.079316) scale(0.0694 -0.0694)">
      <defs>
       <path id="DejaVuSans-36" d="M 2113 2584 
Q 1688 2584 1439 2293 
Q 1191 2003 1191 1497 
Q 1191 994 1439 701 
Q 1688 409 2113 409 
Q 2538 409 2786 701 
Q 3034 994 3034 1497 
Q 3034 2003 2786 2293 
Q 2538 2584 2113 2584 
z
M 3366 4563 
L 3366 3988 
Q 3128 4100 2886 4159 
Q 2644 4219 2406 4219 
Q 1781 4219 1451 3797 
Q 1122 3375 1075 2522 
Q 1259 2794 1537 2939 
Q 1816 3084 2150 3084 
Q 2853 3084 3261 2657 
Q 3669 2231 3669 1497 
Q 3669 778 3244 343 
Q 2819 -91 2113 -91 
Q 1303 -91 875 529 
Q 447 1150 447 2328 
Q 447 3434 972 4092 
Q 1497 4750 2381 4750 
Q 2619 4750 2861 4703 
Q 3103 4656 3366 4563 
z
" transform="scale(0.015625)"/>
      </defs>
      <use xlink:href="#DejaVuSans-74"/>
      <use xlink:href="#DejaVuSans-6f" transform="translate(39.208984 0)"/>
      <use xlink:href="#DejaVuSans-74" transform="translate(100.390625 0)"/>
      <use xlink:href="#DejaVuSans-61" transform="translate(139.599609 0)"/>
      <use xlink:href="#DejaVuSans-6c" transform="translate(200.878906 0)"/>
      <use xlink:href="#DejaVuSans-2c" transform="translate(228.662109 0)"/>
      <use xlink:href="#DejaVuSans-20" transform="translate(260.449219 0)"/>
      <use xlink:href="#DejaVuSans-4e" transform="translate(292.236328 0)"/>
      <use xlink:href="#DejaVuSans-20" transform="translate(367.041016 0)"/>
      <use xlink:href="#DejaVuSans-3d" transform="translate(398.828125 0)"/>
      <use xlink:href="#DejaVuSans-20" transform="translate(482.617188 0)"/>
      <use xlink:href="#DejaVuSans-32" transform="translate(514.404297 0)"/>
      <use xlink:href="#DejaVuSans-35" transform="translate(578.027344 0)"/>
      <use xlink:href="#DejaVuSans-36" transform="translate(641.650391 0)"/>
      <use xlink:href="#DejaVuSans-b3" transform="translate(705.273438 0)"/>
      <use xlink:href="#DejaVuSans-2c" transform="translate(745.361328 0)"/>
      <use xlink:href="#DejaVuSans-20" transform="translate(777.148438 0)"/>
      <use xlink:href="#DejaVuSans-6e" transform="translate(808.935547 0)"/>
      <use xlink:href="#DejaVuSans-6f" transform="translate(872.314453 0)"/>
      <use xlink:href="#DejaVuSans-6e" transform="translate(933.496094 0)"/>
      <use xlink:href="#DejaVuSans-2d" transform="translate(996.875 0)"/>
      <use xlink:href="#DejaVuSans-63" transform="translate(1032.958984 0)"/>
      <use xlink:href="#DejaVuSans-6f" transform="translate(1087.939453 0)"/>
      <use xlink:href="#DejaVuSans-6e" transform="translate(1149.121094 0)"/>
      <use xlink:href="#DejaVuSans-73" transform="translate(1212.5 0)"/>
      <use xlink:href="#DejaVuSans-65" transform="translate(1264.599609 0)"/>
      <use xlink:href="#DejaVuSans-72" transform="translate(1326.123047 0)"/>
      <use xlink:href="#DejaVuSans-76" transform="translate(1367.236328 0)"/>
      <use xlink:href="#DejaVuSans-61" transform="translate(1426.416016 0)"/>
      <use xlink:href="#DejaVuSans-74" transform="translate(1487.695312 0)"/>
      <use xlink:href="#DejaVuSans-69" transform="translate(1526.904297 0)"/>
      <use xlink:href="#DejaVuSans-76" transform="translate(1554.6875 0)"/>
      <use xlink:href="#DejaVuSans-65" transform="translate(1613.867188 0)"/>
     </g>
    </g>
    <g id="line2d_34">
     <path d="M 376.959428 53.836934 
L 383.899428 53.836934 
L 390.839428 53.836934 
" style="fill: none; stroke: #8c564b; stroke-width: 1.5; stroke-linecap: square"/>
    </g>
    <g id="text_24">
     <!-- internal, N = 256³, non-conservative -->
     <g transform="translate(396.391428 56.265934) scale(0.0694 -0.0694)">
      <use xlink:href="#DejaVuSans-69"/>
      <use xlink:href="#DejaVuSans-6e" transform="translate(27.783203 0)"/>
      <use xlink:href="#DejaVuSans-74" transform="translate(91.162109 0)"/>
      <use xlink:href="#DejaVuSans-65" transform="translate(130.371094 0)"/>
      <use xlink:href="#DejaVuSans-72" transform="translate(191.894531 0)"/>
      <use xlink:href="#DejaVuSans-6e" transform="translate(231.257812 0)"/>
      <use xlink:href="#DejaVuSans-61" transform="translate(294.636719 0)"/>
      <use xlink:href="#DejaVuSans-6c" transform="translate(355.916016 0)"/>
      <use xlink:href="#DejaVuSans-2c" transform="translate(383.699219 0)"/>
      <use xlink:href="#DejaVuSans-20" transform="translate(415.486328 0)"/>
      <use xlink:href="#DejaVuSans-4e" transform="translate(447.273438 0)"/>
      <use xlink:href="#DejaVuSans-20" transform="translate(522.078125 0)"/>
      <use xlink:href="#DejaVuSans-3d" transform="translate(553.865234 0)"/>
      <use xlink:href="#DejaVuSans-20" transform="translate(637.654297 0)"/>
      <use xlink:href="#DejaVuSans-32" transform="translate(669.441406 0)"/>
      <use xlink:href="#DejaVuSans-35" transform="translate(733.064453 0)"/>
      <use xlink:href="#DejaVuSans-36" transform="translate(796.6875 0)"/>
      <use xlink:href="#DejaVuSans-b3" transform="translate(860.310547 0)"/>
      <use xlink:href="#DejaVuSans-2c" transform="translate(900.398438 0)"/>
      <use xlink:href="#DejaVuSans-20" transform="translate(932.185547 0)"/>
      <use xlink:href="#DejaVuSans-6e" transform="translate(963.972656 0)"/>
      <use xlink:href="#DejaVuSans-6f" transform="translate(1027.351562 0)"/>
      <use xlink:href="#DejaVuSans-6e" transform="translate(1088.533203 0)"/>
      <use xlink:href="#DejaVuSans-2d" transform="translate(1151.912109 0)"/>
      <use xlink:href="#DejaVuSans-63" transform="translate(1187.996094 0)"/>
      <use xlink:href="#DejaVuSans-6f" transform="translate(1242.976562 0)"/>
      <use xlink:href="#DejaVuSans-6e" transform="translate(1304.158203 0)"/>
      <use xlink:href="#DejaVuSans-73" transform="translate(1367.537109 0)"/>
      <use xlink:href="#DejaVuSans-65" transform="translate(1419.636719 0)"/>
      <use xlink:href="#DejaVuSans-72" transform="translate(1481.160156 0)"/>
      <use xlink:href="#DejaVuSans-76" transform="translate(1522.273438 0)"/>
      <use xlink:href="#DejaVuSans-61" transform="translate(1581.453125 0)"/>
      <use xlink:href="#DejaVuSans-74" transform="translate(1642.732422 0)"/>
      <use xlink:href="#DejaVuSans-69" transform="translate(1681.941406 0)"/>
      <use xlink:href="#DejaVuSans-76" transform="translate(1709.724609 0)"/>
      <use xlink:href="#DejaVuSans-65" transform="translate(1768.904297 0)"/>
     </g>
    </g>
    <g id="line2d_35">
     <path d="M 376.959428 64.023553 
L 383.899428 64.023553 
L 390.839428 64.023553 
" style="fill: none; stroke: #e377c2; stroke-width: 1.5; stroke-linecap: square"/>
    </g>
    <g id="text_25">
     <!-- kinetic, N = 256³, non-conservative -->
     <g transform="translate(396.391428 66.452553) scale(0.0694 -0.0694)">
      <use xlink:href="#DejaVuSans-6b"/>
      <use xlink:href="#DejaVuSans-69" transform="translate(57.910156 0)"/>
      <use xlink:href="#DejaVuSans-6e" transform="translate(85.693359 0)"/>
      <use xlink:href="#DejaVuSans-65" transform="translate(149.072266 0)"/>
      <use xlink:href="#DejaVuSans-74" transform="translate(210.595703 0)"/>
      <use xlink:href="#DejaVuSans-69" transform="translate(249.804688 0)"/>
      <use xlink:href="#DejaVuSans-63" transform="translate(277.587891 0)"/>
      <use xlink:href="#DejaVuSans-2c" transform="translate(332.568359 0)"/>
      <use xlink:href="#DejaVuSans-20" transform="translate(364.355469 0)"/>
      <use xlink:href="#DejaVuSans-4e" transform="translate(396.142578 0)"/>
      <use xlink:href="#DejaVuSans-20" transform="translate(470.947266 0)"/>
      <use xlink:href="#DejaVuSans-3d" transform="translate(502.734375 0)"/>
      <use xlink:href="#DejaVuSans-20" transform="translate(586.523438 0)"/>
      <use xlink:href="#DejaVuSans-32" transform="translate(618.310547 0)"/>
      <use xlink:href="#DejaVuSans-35" transform="translate(681.933594 0)"/>
      <use xlink:href="#DejaVuSans-36" transform="translate(745.556641 0)"/>
      <use xlink:href="#DejaVuSans-b3" transform="translate(809.179688 0)"/>
      <use xlink:href="#DejaVuSans-2c" transform="translate(849.267578 0)"/>
      <use xlink:href="#DejaVuSans-20" transform="translate(881.054688 0)"/>
      <use xlink:href="#DejaVuSans-6e" transform="translate(912.841797 0)"/>
      <use xlink:href="#DejaVuSans-6f" transform="translate(976.220703 0)"/>
      <use xlink:href="#DejaVuSans-6e" transform="translate(1037.402344 0)"/>
      <use xlink:href="#DejaVuSans-2d" transform="translate(1100.78125 0)"/>
      <use xlink:href="#DejaVuSans-63" transform="translate(1136.865234 0)"/>
      <use xlink:href="#DejaVuSans-6f" transform="translate(1191.845703 0)"/>
      <use xlink:href="#DejaVuSans-6e" transform="translate(1253.027344 0)"/>
      <use xlink:href="#DejaVuSans-73" transform="translate(1316.40625 0)"/>
      <use xlink:href="#DejaVuSans-65" transform="translate(1368.505859 0)"/>
      <use xlink:href="#DejaVuSans-72" transform="translate(1430.029297 0)"/>
      <use xlink:href="#DejaVuSans-76" transform="translate(1471.142578 0)"/>
      <use xlink:href="#DejaVuSans-61" transform="translate(1530.322266 0)"/>
      <use xlink:href="#DejaVuSans-74" transform="translate(1591.601562 0)"/>
      <use xlink:href="#DejaVuSans-69" transform="translate(1630.810547 0)"/>
      <use xlink:href="#DejaVuSans-76" transform="translate(1658.59375 0)"/>
      <use xlink:href="#DejaVuSans-65" transform="translate(1717.773438 0)"/>
     </g>
    </g>
    <g id="line2d_36">
     <path d="M 376.959428 74.210172 
L 383.899428 74.210172 
L 390.839428 74.210172 
" style="fill: none; stroke: #7f7f7f; stroke-width: 1.5; stroke-linecap: square"/>
    </g>
    <g id="text_26">
     <!-- gravitational, N = 256³, non-conservative -->
     <g transform="translate(396.391428 76.639172) scale(0.0694 -0.0694)">
      <use xlink:href="#DejaVuSans-67"/>
      <use xlink:href="#DejaVuSans-72" transform="translate(63.476562 0)"/>
      <use xlink:href="#DejaVuSans-61" transform="translate(104.589844 0)"/>
      <use xlink:href="#DejaVuSans-76" transform="translate(165.869141 0)"/>
      <use xlink:href="#DejaVuSans-69" transform="translate(225.048828 0)"/>
      <use xlink:href="#DejaVuSans-74" transform="translate(252.832031 0)"/>
      <use xlink:href="#DejaVuSans-61" transform="translate(292.041016 0)"/>
      <use xlink:href="#DejaVuSans-74" transform="translate(353.320312 0)"/>
      <use xlink:href="#DejaVuSans-69" transform="translate(392.529297 0)"/>
      <use xlink:href="#DejaVuSans-6f" transform="translate(420.3125 0)"/>
      <use xlink:href="#DejaVuSans-6e" transform="translate(481.494141 0)"/>
      <use xlink:href="#DejaVuSans-61" transform="translate(544.873047 0)"/>
      <use xlink:href="#DejaVuSans-6c" transform="translate(606.152344 0)"/>
      <use xlink:href="#DejaVuSans-2c" transform="translate(633.935547 0)"/>
      <use xlink:href="#DejaVuSans-20" transform="translate(665.722656 0)"/>
      <use xlink:href="#DejaVuSans-4e" transform="translate(697.509766 0)"/>
      <use xlink:href="#DejaVuSans-20" transform="translate(772.314453 0)"/>
      <use xlink:href="#DejaVuSans-3d" transform="translate(804.101562 0)"/>
      <use xlink:href="#DejaVuSans-20" transform="translate(887.890625 0)"/>
      <use xlink:href="#DejaVuSans-32" transform="translate(919.677734 0)"/>
      <use xlink:href="#DejaVuSans-35" transform="translate(983.300781 0)"/>
      <use xlink:href="#DejaVuSans-36" transform="translate(1046.923828 0)"/>
      <use xlink:href="#DejaVuSans-b3" transform="translate(1110.546875 0)"/>
      <use xlink:href="#DejaVuSans-2c" transform="translate(1150.634766 0)"/>
      <use xlink:href="#DejaVuSans-20" transform="translate(1182.421875 0)"/>
      <use xlink:href="#DejaVuSans-6e" transform="translate(1214.208984 0)"/>
      <use xlink:href="#DejaVuSans-6f" transform="translate(1277.587891 0)"/>
      <use xlink:href="#DejaVuSans-6e" transform="translate(1338.769531 0)"/>
      <use xlink:href="#DejaVuSans-2d" transform="translate(1402.148438 0)"/>
      <use xlink:href="#DejaVuSans-63" transform="translate(1438.232422 0)"/>
      <use xlink:href="#DejaVuSans-6f" transform="translate(1493.212891 0)"/>
      <use xlink:href="#DejaVuSans-6e" transform="translate(1554.394531 0)"/>
      <use xlink:href="#DejaVuSans-73" transform="translate(1617.773438 0)"/>
      <use xlink:href="#DejaVuSans-65" transform="translate(1669.873047 0)"/>
      <use xlink:href="#DejaVuSans-72" transform="translate(1731.396484 0)"/>
      <use xlink:href="#DejaVuSans-76" transform="translate(1772.509766 0)"/>
      <use xlink:href="#DejaVuSans-61" transform="translate(1831.689453 0)"/>
      <use xlink:href="#DejaVuSans-74" transform="translate(1892.96875 0)"/>
      <use xlink:href="#DejaVuSans-69" transform="translate(1932.177734 0)"/>
      <use xlink:href="#DejaVuSans-76" transform="translate(1959.960938 0)"/>
      <use xlink:href="#DejaVuSans-65" transform="translate(2019.140625 0)"/>
     </g>
    </g>
    <g id="line2d_37">
     <path d="M 554.670056 43.650316 
L 561.610056 43.650316 
L 568.550056 43.650316 
" style="fill: none; stroke-dasharray: 5.55,2.4; stroke-dashoffset: 0; stroke: #bcbd22; stroke-width: 1.5"/>
    </g>
    <g id="text_27">
     <!-- total, N = 128³, conservative -->
     <g transform="translate(574.102056 46.079316) scale(0.0694 -0.0694)">
      <use xlink:href="#DejaVuSans-74"/>
      <use xlink:href="#DejaVuSans-6f" transform="translate(39.208984 0)"/>
      <use xlink:href="#DejaVuSans-74" transform="translate(100.390625 0)"/>
      <use xlink:href="#DejaVuSans-61" transform="translate(139.599609 0)"/>
      <use xlink:href="#DejaVuSans-6c" transform="translate(200.878906 0)"/>
      <use xlink:href="#DejaVuSans-2c" transform="translate(228.662109 0)"/>
      <use xlink:href="#DejaVuSans-20" transform="translate(260.449219 0)"/>
      <use xlink:href="#DejaVuSans-4e" transform="translate(292.236328 0)"/>
      <use xlink:href="#DejaVuSans-20" transform="translate(367.041016 0)"/>
      <use xlink:href="#DejaVuSans-3d" transform="translate(398.828125 0)"/>
      <use xlink:href="#DejaVuSans-20" transform="translate(482.617188 0)"/>
      <use xlink:href="#DejaVuSans-31" transform="translate(514.404297 0)"/>
      <use xlink:href="#DejaVuSans-32" transform="translate(578.027344 0)"/>
      <use xlink:href="#DejaVuSans-38" transform="translate(641.650391 0)"/>
      <use xlink:href="#DejaVuSans-b3" transform="translate(705.273438 0)"/>
      <use xlink:href="#DejaVuSans-2c" transform="translate(745.361328 0)"/>
      <use xlink:href="#DejaVuSans-20" transform="translate(777.148438 0)"/>
      <use xlink:href="#DejaVuSans-63" transform="translate(808.935547 0)"/>
      <use xlink:href="#DejaVuSans-6f" transform="translate(863.916016 0)"/>
      <use xlink:href="#DejaVuSans-6e" transform="translate(925.097656 0)"/>
      <use xlink:href="#DejaVuSans-73" transform="translate(988.476562 0)"/>
      <use xlink:href="#DejaVuSans-65" transform="translate(1040.576172 0)"/>
      <use xlink:href="#DejaVuSans-72" transform="translate(1102.099609 0)"/>
      <use xlink:href="#DejaVuSans-76" transform="translate(1143.212891 0)"/>
      <use xlink:href="#DejaVuSans-61" transform="translate(1202.392578 0)"/>
      <use xlink:href="#DejaVuSans-74" transform="translate(1263.671875 0)"/>
      <use xlink:href="#DejaVuSans-69" transform="translate(1302.880859 0)"/>
      <use xlink:href="#DejaVuSans-76" transform="translate(1330.664062 0)"/>
      <use xlink:href="#DejaVuSans-65" transform="translate(1389.84375 0)"/>
     </g>
    </g>
    <g id="line2d_38">
     <path d="M 554.670056 53.836934 
L 561.610056 53.836934 
L 568.550056 53.836934 
" style="fill: none; stroke-dasharray: 5.55,2.4; stroke-dashoffset: 0; stroke: #17becf; stroke-width: 1.5"/>
    </g>
    <g id="text_28">
     <!-- internal, N = 128³, conservative -->
     <g transform="translate(574.102056 56.265934) scale(0.0694 -0.0694)">
      <use xlink:href="#DejaVuSans-69"/>
      <use xlink:href="#DejaVuSans-6e" transform="translate(27.783203 0)"/>
      <use xlink:href="#DejaVuSans-74" transform="translate(91.162109 0)"/>
      <use xlink:href="#DejaVuSans-65" transform="translate(130.371094 0)"/>
      <use xlink:href="#DejaVuSans-72" transform="translate(191.894531 0)"/>
      <use xlink:href="#DejaVuSans-6e" transform="translate(231.257812 0)"/>
      <use xlink:href="#DejaVuSans-61" transform="translate(294.636719 0)"/>
      <use xlink:href="#DejaVuSans-6c" transform="translate(355.916016 0)"/>
      <use xlink:href="#DejaVuSans-2c" transform="translate(383.699219 0)"/>
      <use xlink:href="#DejaVuSans-20" transform="translate(415.486328 0)"/>
      <use xlink:href="#DejaVuSans-4e" transform="translate(447.273438 0)"/>
      <use xlink:href="#DejaVuSans-20" transform="translate(522.078125 0)"/>
      <use xlink:href="#DejaVuSans-3d" transform="translate(553.865234 0)"/>
      <use xlink:href="#DejaVuSans-20" transform="translate(637.654297 0)"/>
      <use xlink:href="#DejaVuSans-31" transform="translate(669.441406 0)"/>
      <use xlink:href="#DejaVuSans-32" transform="translate(733.064453 0)"/>
      <use xlink:href="#DejaVuSans-38" transform="translate(796.6875 0)"/>
      <use xlink:href="#DejaVuSans-b3" transform="translate(860.310547 0)"/>
      <use xlink:href="#DejaVuSans-2c" transform="translate(900.398438 0)"/>
      <use xlink:href="#DejaVuSans-20" transform="translate(932.185547 0)"/>
      <use xlink:href="#DejaVuSans-63" transform="translate(963.972656 0)"/>
      <use xlink:href="#DejaVuSans-6f" transform="translate(1018.953125 0)"/>
      <use xlink:href="#DejaVuSans-6e" transform="translate(1080.134766 0)"/>
      <use xlink:href="#DejaVuSans-73" transform="translate(1143.513672 0)"/>
      <use xlink:href="#DejaVuSans-65" transform="translate(1195.613281 0)"/>
      <use xlink:href="#DejaVuSans-72" transform="translate(1257.136719 0)"/>
      <use xlink:href="#DejaVuSans-76" transform="translate(1298.25 0)"/>
      <use xlink:href="#DejaVuSans-61" transform="translate(1357.429688 0)"/>
      <use xlink:href="#DejaVuSans-74" transform="translate(1418.708984 0)"/>
      <use xlink:href="#DejaVuSans-69" transform="translate(1457.917969 0)"/>
      <use xlink:href="#DejaVuSans-76" transform="translate(1485.701172 0)"/>
      <use xlink:href="#DejaVuSans-65" transform="translate(1544.880859 0)"/>
     </g>
    </g>
    <g id="line2d_39">
     <path d="M 554.670056 64.023553 
L 561.610056 64.023553 
L 568.550056 64.023553 
" style="fill: none; stroke-dasharray: 5.55,2.4; stroke-dashoffset: 0; stroke: #1f77b4; stroke-width: 1.5"/>
    </g>
    <g id="text_29">
     <!-- kinetic, N = 128³, conservative -->
     <g transform="translate(574.102056 66.452553) scale(0.0694 -0.0694)">
      <use xlink:href="#DejaVuSans-6b"/>
      <use xlink:href="#DejaVuSans-69" transform="translate(57.910156 0)"/>
      <use xlink:href="#DejaVuSans-6e" transform="translate(85.693359 0)"/>
      <use xlink:href="#DejaVuSans-65" transform="translate(149.072266 0)"/>
      <use xlink:href="#DejaVuSans-74" transform="translate(210.595703 0)"/>
      <use xlink:href="#DejaVuSans-69" transform="translate(249.804688 0)"/>
      <use xlink:href="#DejaVuSans-63" transform="translate(277.587891 0)"/>
      <use xlink:href="#DejaVuSans-2c" transform="translate(332.568359 0)"/>
      <use xlink:href="#DejaVuSans-20" transform="translate(364.355469 0)"/>
      <use xlink:href="#DejaVuSans-4e" transform="translate(396.142578 0)"/>
      <use xlink:href="#DejaVuSans-20" transform="translate(470.947266 0)"/>
      <use xlink:href="#DejaVuSans-3d" transform="translate(502.734375 0)"/>
      <use xlink:href="#DejaVuSans-20" transform="translate(586.523438 0)"/>
      <use xlink:href="#DejaVuSans-31" transform="translate(618.310547 0)"/>
      <use xlink:href="#DejaVuSans-32" transform="translate(681.933594 0)"/>
      <use xlink:href="#DejaVuSans-38" transform="translate(745.556641 0)"/>
      <use xlink:href="#DejaVuSans-b3" transform="translate(809.179688 0)"/>
      <use xlink:href="#DejaVuSans-2c" transform="translate(849.267578 0)"/>
      <use xlink:href="#DejaVuSans-20" transform="translate(881.054688 0)"/>
      <use xlink:href="#DejaVuSans-63" transform="translate(912.841797 0)"/>
      <use xlink:href="#DejaVuSans-6f" transform="translate(967.822266 0)"/>
      <use xlink:href="#DejaVuSans-6e" transform="translate(1029.003906 0)"/>
      <use xlink:href="#DejaVuSans-73" transform="translate(1092.382812 0)"/>
      <use xlink:href="#DejaVuSans-65" transform="translate(1144.482422 0)"/>
      <use xlink:href="#DejaVuSans-72" transform="translate(1206.005859 0)"/>
      <use xlink:href="#DejaVuSans-76" transform="translate(1247.119141 0)"/>
      <use xlink:href="#DejaVuSans-61" transform="translate(1306.298828 0)"/>
      <use xlink:href="#DejaVuSans-74" transform="translate(1367.578125 0)"/>
      <use xlink:href="#DejaVuSans-69" transform="translate(1406.787109 0)"/>
      <use xlink:href="#DejaVuSans-76" transform="translate(1434.570312 0)"/>
      <use xlink:href="#DejaVuSans-65" transform="translate(1493.75 0)"/>
     </g>
    </g>
    <g id="line2d_40">
     <path d="M 554.670056 74.210172 
L 561.610056 74.210172 
L 568.550056 74.210172 
" style="fill: none; stroke-dasharray: 5.55,2.4; stroke-dashoffset: 0; stroke: #ff7f0e; stroke-width: 1.5"/>
    </g>
    <g id="text_30">
     <!-- gravitational, N = 128³, conservative -->
     <g transform="translate(574.102056 76.639172) scale(0.0694 -0.0694)">
      <use xlink:href="#DejaVuSans-67"/>
      <use xlink:href="#DejaVuSans-72" transform="translate(63.476562 0)"/>
      <use xlink:href="#DejaVuSans-61" transform="translate(104.589844 0)"/>
      <use xlink:href="#DejaVuSans-76" transform="translate(165.869141 0)"/>
      <use xlink:href="#DejaVuSans-69" transform="translate(225.048828 0)"/>
      <use xlink:href="#DejaVuSans-74" transform="translate(252.832031 0)"/>
      <use xlink:href="#DejaVuSans-61" transform="translate(292.041016 0)"/>
      <use xlink:href="#DejaVuSans-74" transform="translate(353.320312 0)"/>
      <use xlink:href="#DejaVuSans-69" transform="translate(392.529297 0)"/>
      <use xlink:href="#DejaVuSans-6f" transform="translate(420.3125 0)"/>
      <use xlink:href="#DejaVuSans-6e" transform="translate(481.494141 0)"/>
      <use xlink:href="#DejaVuSans-61" transform="translate(544.873047 0)"/>
      <use xlink:href="#DejaVuSans-6c" transform="translate(606.152344 0)"/>
      <use xlink:href="#DejaVuSans-2c" transform="translate(633.935547 0)"/>
      <use xlink:href="#DejaVuSans-20" transform="translate(665.722656 0)"/>
      <use xlink:href="#DejaVuSans-4e" transform="translate(697.509766 0)"/>
      <use xlink:href="#DejaVuSans-20" transform="translate(772.314453 0)"/>
      <use xlink:href="#DejaVuSans-3d" transform="translate(804.101562 0)"/>
      <use xlink:href="#DejaVuSans-20" transform="translate(887.890625 0)"/>
      <use xlink:href="#DejaVuSans-31" transform="translate(919.677734 0)"/>
      <use xlink:href="#DejaVuSans-32" transform="translate(983.300781 0)"/>
      <use xlink:href="#DejaVuSans-38" transform="translate(1046.923828 0)"/>
      <use xlink:href="#DejaVuSans-b3" transform="translate(1110.546875 0)"/>
      <use xlink:href="#DejaVuSans-2c" transform="translate(1150.634766 0)"/>
      <use xlink:href="#DejaVuSans-20" transform="translate(1182.421875 0)"/>
      <use xlink:href="#DejaVuSans-63" transform="translate(1214.208984 0)"/>
      <use xlink:href="#DejaVuSans-6f" transform="translate(1269.189453 0)"/>
      <use xlink:href="#DejaVuSans-6e" transform="translate(1330.371094 0)"/>
      <use xlink:href="#DejaVuSans-73" transform="translate(1393.75 0)"/>
      <use xlink:href="#DejaVuSans-65" transform="translate(1445.849609 0)"/>
      <use xlink:href="#DejaVuSans-72" transform="translate(1507.373047 0)"/>
      <use xlink:href="#DejaVuSans-76" transform="translate(1548.486328 0)"/>
      <use xlink:href="#DejaVuSans-61" transform="translate(1607.666016 0)"/>
      <use xlink:href="#DejaVuSans-74" transform="translate(1668.945312 0)"/>
      <use xlink:href="#DejaVuSans-69" transform="translate(1708.154297 0)"/>
      <use xlink:href="#DejaVuSans-76" transform="translate(1735.9375 0)"/>
      <use xlink:href="#DejaVuSans-65" transform="translate(1795.117188 0)"/>
     </g>
    </g>
   </g>
  </g>
  <g id="text_31">
   <!-- Evrard's collapse energy evolution -->
   <g transform="translate(256.455938 16.318125) scale(0.12 -0.12)">
    <defs>
     <path id="DejaVuSans-45" d="M 628 4666 
L 3578 4666 
L 3578 4134 
L 1259 4134 
L 1259 2753 
L 3481 2753 
L 3481 2222 
L 1259 2222 
L 1259 531 
L 3634 531 
L 3634 0 
L 628 0 
L 628 4666 
z
" transform="scale(0.015625)"/>
     <path id="DejaVuSans-64" d="M 2906 2969 
L 2906 4863 
L 3481 4863 
L 3481 0 
L 2906 0 
L 2906 525 
Q 2725 213 2448 61 
Q 2172 -91 1784 -91 
Q 1150 -91 751 415 
Q 353 922 353 1747 
Q 353 2572 751 3078 
Q 1150 3584 1784 3584 
Q 2172 3584 2448 3432 
Q 2725 3281 2906 2969 
z
M 947 1747 
Q 947 1113 1208 752 
Q 1469 391 1925 391 
Q 2381 391 2643 752 
Q 2906 1113 2906 1747 
Q 2906 2381 2643 2742 
Q 2381 3103 1925 3103 
Q 1469 3103 1208 2742 
Q 947 2381 947 1747 
z
" transform="scale(0.015625)"/>
     <path id="DejaVuSans-27" d="M 1147 4666 
L 1147 2931 
L 616 2931 
L 616 4666 
L 1147 4666 
z
" transform="scale(0.015625)"/>
     <path id="DejaVuSans-70" d="M 1159 525 
L 1159 -1331 
L 581 -1331 
L 581 3500 
L 1159 3500 
L 1159 2969 
Q 1341 3281 1617 3432 
Q 1894 3584 2278 3584 
Q 2916 3584 3314 3078 
Q 3713 2572 3713 1747 
Q 3713 922 3314 415 
Q 2916 -91 2278 -91 
Q 1894 -91 1617 61 
Q 1341 213 1159 525 
z
M 3116 1747 
Q 3116 2381 2855 2742 
Q 2594 3103 2138 3103 
Q 1681 3103 1420 2742 
Q 1159 2381 1159 1747 
Q 1159 1113 1420 752 
Q 1681 391 2138 391 
Q 2594 391 2855 752 
Q 3116 1113 3116 1747 
z
" transform="scale(0.015625)"/>
     <path id="DejaVuSans-75" d="M 544 1381 
L 544 3500 
L 1119 3500 
L 1119 1403 
Q 1119 906 1312 657 
Q 1506 409 1894 409 
Q 2359 409 2629 706 
Q 2900 1003 2900 1516 
L 2900 3500 
L 3475 3500 
L 3475 0 
L 2900 0 
L 2900 538 
Q 2691 219 2414 64 
Q 2138 -91 1772 -91 
Q 1169 -91 856 284 
Q 544 659 544 1381 
z
M 1991 3584 
L 1991 3584 
z
" transform="scale(0.015625)"/>
    </defs>
    <use xlink:href="#DejaVuSans-45"/>
    <use xlink:href="#DejaVuSans-76" transform="translate(63.183594 0)"/>
    <use xlink:href="#DejaVuSans-72" transform="translate(122.363281 0)"/>
    <use xlink:href="#DejaVuSans-61" transform="translate(163.476562 0)"/>
    <use xlink:href="#DejaVuSans-72" transform="translate(224.755859 0)"/>
    <use xlink:href="#DejaVuSans-64" transform="translate(264.119141 0)"/>
    <use xlink:href="#DejaVuSans-27" transform="translate(327.595703 0)"/>
    <use xlink:href="#DejaVuSans-73" transform="translate(355.085938 0)"/>
    <use xlink:href="#DejaVuSans-20" transform="translate(407.185547 0)"/>
    <use xlink:href="#DejaVuSans-63" transform="translate(438.972656 0)"/>
    <use xlink:href="#DejaVuSans-6f" transform="translate(493.953125 0)"/>
    <use xlink:href="#DejaVuSans-6c" transform="translate(555.134766 0)"/>
    <use xlink:href="#DejaVuSans-6c" transform="translate(582.917969 0)"/>
    <use xlink:href="#DejaVuSans-61" transform="translate(610.701172 0)"/>
    <use xlink:href="#DejaVuSans-70" transform="translate(671.980469 0)"/>
    <use xlink:href="#DejaVuSans-73" transform="translate(735.457031 0)"/>
    <use xlink:href="#DejaVuSans-65" transform="translate(787.556641 0)"/>
    <use xlink:href="#DejaVuSans-20" transform="translate(849.080078 0)"/>
    <use xlink:href="#DejaVuSans-65" transform="translate(880.867188 0)"/>
    <use xlink:href="#DejaVuSans-6e" transform="translate(942.390625 0)"/>
    <use xlink:href="#DejaVuSans-65" transform="translate(1005.769531 0)"/>
    <use xlink:href="#DejaVuSans-72" transform="translate(1067.292969 0)"/>
    <use xlink:href="#DejaVuSans-67" transform="translate(1106.65625 0)"/>
    <use xlink:href="#DejaVuSans-79" transform="translate(1170.132812 0)"/>
    <use xlink:href="#DejaVuSans-20" transform="translate(1229.3125 0)"/>
    <use xlink:href="#DejaVuSans-65" transform="translate(1261.099609 0)"/>
    <use xlink:href="#DejaVuSans-76" transform="translate(1322.623047 0)"/>
    <use xlink:href="#DejaVuSans-6f" transform="translate(1381.802734 0)"/>
    <use xlink:href="#DejaVuSans-6c" transform="translate(1442.984375 0)"/>
    <use xlink:href="#DejaVuSans-75" transform="translate(1470.767578 0)"/>
    <use xlink:href="#DejaVuSans-74" transform="translate(1534.146484 0)"/>
    <use xlink:href="#DejaVuSans-69" transform="translate(1573.355469 0)"/>
    <use xlink:href="#DejaVuSans-6f" transform="translate(1601.138672 0)"/>
    <use xlink:href="#DejaVuSans-6e" transform="translate(1662.320312 0)"/>
   </g>
  </g>
 </g>
 <defs>
  <clipPath id="p7e136de7a2">
   <rect x="56.09" y="34.56" width="653.11" height="283.48"/>
  </clipPath>
 </defs>
</svg>
